<?xml version="1.0" encoding="UTF-8"?>
<svg id="Capa_2" data-name="Capa 2" xmlns="http://www.w3.org/2000/svg" viewBox="0 0 2004.3 2986.41">
  <defs>
    <style>
      .cls-1 {
        fill: none;
        stroke: #2d3d22;
        stroke-miterlimit: 10;
        stroke-width: 35.45px;
      }

      .cls-2 {
        fill: #456332;
      }

      .cls-2, .cls-3, .cls-4 {
        stroke-width: 0px;
      }

      .cls-3 {
        fill: #2d3d22;
      }

      .cls-4 {
        fill: #5e7f49;
      }
    </style>
  </defs>
  <g id="Capa_1-2" data-name="Capa 1">
    <rect class="cls-3" width="2004.3" height="2986.41"/>
    <g>
      <path class="cls-4" d="m89.93,2281.74v-960.29c0-340.63,276.14-616.77,616.77-616.77h1207.67v960.29c0,340.63-276.13,616.77-616.77,616.77H89.93Z"/>
      <path class="cls-2" d="m1914.37,1664.97v1234.85H89.93v-618.08h1207.67c340.64,0,616.77-276.14,616.77-616.77Z"/>
      <path class="cls-2" d="m89.93,1321.45V86.6h1824.44v618.08H706.7c-340.63,0-616.77,276.14-616.77,616.77Z"/>
    </g>
    <g>
      <path class="cls-2" d="m1442.29,1009.39l-202.77,197.29c-3.69,3.59-8.64,5.6-13.8,5.6h-568.29c-17.76,0-26.53-21.58-13.8-33.97l202.77-197.29c3.69-3.59,8.64-5.6,13.8-5.6h568.29c17.76,0,26.53,21.58,13.8,33.97Z"/>
      <path class="cls-2" d="m1442.29,1977.02l-202.77-197.29c-3.69-3.59-8.64-5.6-13.8-5.6h-568.29c-17.76,0-26.53,21.58-13.8,33.97l202.77,197.29c3.69,3.59,8.64,5.6,13.8,5.6h568.29c17.76,0,26.53-21.58,13.8-33.97Z"/>
      <path class="cls-2" d="m1156.54,1414.8c-55.99,84.46-145.38,144.46-243.27,169.68-47.72,12.29-98.99,14.07-145.86-1.16-75.79-24.62-129.08-54.95-207.08-22.18-2.38,1-4.91-1.18-4.24-3.67,33.82-126.53,151.26-194.35,279.76-153.31,43.27,13.82,82.45,39.46,126.76,49.47,64.8,14.64,137.96-5.59,193.86-39"/>
    </g>
    <g>
      <g>
        <path class="cls-3" d="m620.35,2653.66l35.83,12.81c-8.77,12.12-15.12,20.14-19.04,24.06-19.27,19.27-42.52,28.91-69.76,28.91s-50.31-9.63-69.58-28.91c-19.27-19.27-28.91-42.52-28.91-69.76s9.63-50.48,28.91-69.76c19.27-19.27,42.46-28.91,69.58-28.91s50.48,9.64,69.76,28.91c3.92,3.92,10.27,11.83,19.04,23.71l-35.83,13.15c-4.62-5.65-7.73-9.29-9.35-10.9-12-12-26.54-18-43.62-18s-31.48,6.03-43.53,18.09c-12.06,12.06-18.09,26.63-18.09,43.71s6.03,31.48,18.09,43.53c12.06,12.06,26.57,18.09,43.53,18.09s31.68-6,43.79-18c1.5-1.61,4.56-5.19,9.17-10.73Z"/>
        <path class="cls-3" d="m785.82,2522.11c27.23,0,50.46,9.64,69.67,28.91,19.22,19.27,28.82,42.52,28.82,69.76s-9.61,50.49-28.82,69.76c-19.21,19.27-42.43,28.91-69.67,28.91s-50.31-9.63-69.58-28.91c-19.27-19.27-28.91-42.52-28.91-69.76s9.63-50.48,28.91-69.76c19.27-19.27,42.46-28.91,69.58-28.91Zm-43.7,55.04c-12.06,12.12-18.09,26.66-18.09,43.62s6.03,31.62,18.09,43.62c12.06,12,26.63,18,43.7,18s31.65-6,43.7-18c12.06-12,18.09-26.54,18.09-43.62s-6.03-31.5-18.09-43.62c-12.06-12.12-26.63-18.17-43.7-18.17s-31.65,6.06-43.7,18.17Z"/>
      </g>
      <path class="cls-1" d="m267.83,2619.48c32.97,18.2,73.23,17.24,104.96-2.56,47.33-29.53,48.55-84.05,48.56-88.56,0-.08-.08-.11-.14-.07-5.76,3.42-15.03,8.11-27.14,10.57-17.04,3.46-26.12-.26-46.03,1.9-3.06.33-18.66,2.14-30.81,7.19-23.52,9.78-49.71,38.2-49.43,74.1.37,47.17,46.19,80.23,80.23,80.23,29.89,0,55.96-16.34,69.77-40.58"/>
      <g>
        <path class="cls-3" d="m956.4,2438.95v272.34h-35.38v-272.34h35.38Z"/>
        <path class="cls-3" d="m1094.01,2521.96c26.76,0,49.59,9.47,68.47,28.41,18.88,18.94,28.32,41.79,28.32,68.55s-9.44,49.62-28.32,68.55c-18.88,18.94-41.7,28.41-68.47,28.41s-49.44-9.47-68.38-28.41c-18.94-18.94-28.41-41.79-28.41-68.55s9.47-49.61,28.41-68.55c18.94-18.94,41.73-28.41,68.38-28.41Zm-42.95,54.09c-11.85,11.91-17.78,26.2-17.78,42.87s5.92,31.07,17.78,42.87c11.85,11.8,26.17,17.69,42.95,17.69s31.1-5.89,42.95-17.69c11.85-11.79,17.78-26.08,17.78-42.87s-5.93-30.96-17.78-42.87c-11.85-11.91-26.17-17.86-42.95-17.86s-31.1,5.95-42.95,17.86Z"/>
        <path class="cls-3" d="m1383.54,2548.33v-12.08h35.38v130.13c0,34.02-9.24,60.27-27.73,78.76-18.94,16.67-41.79,25.01-68.55,25.01s-49.61-8.34-68.55-25.01c-3.86-3.86-10.04-11.68-18.54-23.47l35.04-12.59c4.53,5.44,7.6,8.96,9.19,10.55,11.91,11.79,26.2,17.69,42.87,17.69,28.01,0,47.4-18.37,58.18-55.11-11,21.32-29.88,31.98-56.65,31.98s-49.59-9.19-68.47-27.56c-18.88-18.37-28.32-40.94-28.32-67.7s9.44-49.59,28.32-68.47c18.88-18.88,41.7-28.32,68.47-28.32,22.57,0,42.36,8.73,59.37,26.2Zm-.17,56.99c-2.15-10.77-7.6-20.52-16.33-29.26-11.8-11.91-26.09-17.86-42.87-17.86s-31.1,5.95-42.95,17.86c-11.85,11.91-17.78,26.2-17.78,42.87s5.92,31.1,17.78,42.95c11.85,11.85,26.17,17.78,42.95,17.78s31.07-5.89,42.87-17.69c8.73-8.73,14.18-18.37,16.33-28.92v-27.73Z"/>
        <path class="cls-3" d="m1508.57,2471.44c4.87,4.76,7.31,10.61,7.31,17.52s-2.44,12.76-7.31,17.52c-4.88,4.76-10.72,7.14-17.52,7.14s-12.48-2.38-17.35-7.14c-4.88-4.76-7.31-10.6-7.31-17.52s2.44-12.76,7.31-17.52c4.87-4.76,10.66-7.14,17.35-7.14s12.64,2.38,17.52,7.14Zm.17,64.81v175.04h-35.21v-175.04h35.21Z"/>
        <path class="cls-3" d="m1701.3,2651.24l35.21,12.59c-8.62,11.91-14.86,19.79-18.71,23.64-18.94,18.94-41.79,28.41-68.55,28.41s-49.44-9.47-68.38-28.41c-18.94-18.94-28.41-41.79-28.41-68.55s9.47-49.61,28.41-68.55c18.94-18.94,41.73-28.41,68.38-28.41s49.61,9.47,68.55,28.41c3.85,3.86,10.09,11.63,18.71,23.3l-35.21,12.93c-4.54-5.55-7.6-9.13-9.19-10.72-11.8-11.79-26.09-17.69-42.87-17.69s-30.93,5.93-42.78,17.78c-11.85,11.85-17.78,26.17-17.78,42.95s5.92,30.93,17.78,42.78c11.85,11.85,26.11,17.78,42.78,17.78s31.13-5.89,43.04-17.69c1.47-1.59,4.48-5.1,9.02-10.55Z"/>
      </g>
    </g>
    <g>
      <g>
        <path class="cls-3" d="m1415.09,342.28l-35.83-12.81c8.77-12.12,15.12-20.14,19.04-24.06,19.27-19.27,42.52-28.91,69.76-28.91s50.31,9.63,69.58,28.91c19.27,19.27,28.91,42.52,28.91,69.76s-9.63,50.48-28.91,69.76c-19.27,19.27-42.46,28.91-69.58,28.91s-50.48-9.64-69.76-28.91c-3.92-3.92-10.27-11.83-19.04-23.71l35.83-13.15c4.62,5.65,7.73,9.29,9.35,10.9,12,12,26.54,18,43.62,18s31.48-6.03,43.53-18.09c12.06-12.06,18.09-26.63,18.09-43.71s-6.03-31.48-18.09-43.53c-12.06-12.06-26.57-18.09-43.53-18.09s-31.68,6-43.79,18c-1.5,1.61-4.56,5.19-9.17,10.73Z"/>
        <path class="cls-3" d="m1249.61,473.82c-27.23,0-50.46-9.64-69.67-28.91-19.22-19.27-28.82-42.52-28.82-69.76s9.61-50.49,28.82-69.76c19.21-19.27,42.43-28.91,69.67-28.91s50.31,9.63,69.58,28.91c19.27,19.27,28.91,42.52,28.91,69.76s-9.63,50.48-28.91,69.76c-19.27,19.27-42.46,28.91-69.58,28.91Zm43.7-55.04c12.06-12.12,18.09-26.66,18.09-43.62s-6.03-31.62-18.09-43.62c-12.06-12-26.63-18-43.7-18s-31.65,6-43.7,18c-12.06,12-18.09,26.54-18.09,43.62s6.03,31.5,18.09,43.62c12.06,12.12,26.63,18.17,43.7,18.17s31.65-6.06,43.7-18.17Z"/>
      </g>
      <path class="cls-1" d="m1767.6,376.45c-32.97-18.2-73.23-17.24-104.96,2.56-47.33,29.53-48.55,84.05-48.56,88.56,0,.08.08.11.14.07,5.76-3.42,15.03-8.11,27.14-10.57,17.04-3.46,26.12.26,46.03-1.9,3.06-.33,18.66-2.14,30.81-7.19,23.52-9.78,49.71-38.2,49.43-74.1-.37-47.17-46.19-80.23-80.23-80.23-29.89,0-55.96,16.34-69.77,40.58"/>
      <g>
        <path class="cls-3" d="m1079.04,556.98v-272.34h35.38v272.34h-35.38Z"/>
        <path class="cls-3" d="m941.42,473.97c-26.76,0-49.59-9.47-68.47-28.41-18.88-18.94-28.32-41.79-28.32-68.55s9.44-49.62,28.32-68.55c18.88-18.94,41.7-28.41,68.47-28.41s49.44,9.47,68.38,28.41c18.94,18.94,28.41,41.79,28.41,68.55s-9.47,49.61-28.41,68.55c-18.94,18.94-41.73,28.41-68.38,28.41Zm42.95-54.09c11.85-11.91,17.78-26.2,17.78-42.87s-5.92-31.07-17.78-42.87c-11.85-11.8-26.17-17.69-42.95-17.69s-31.1,5.89-42.95,17.69c-11.85,11.79-17.78,26.08-17.78,42.87s5.93,30.96,17.78,42.87c11.85,11.91,26.17,17.86,42.95,17.86s31.1-5.95,42.95-17.86Z"/>
        <path class="cls-3" d="m651.9,447.6v12.08h-35.38v-130.13c0-34.02,9.24-60.27,27.73-78.76,18.94-16.67,41.79-25.01,68.55-25.01s49.61,8.34,68.55,25.01c3.86,3.86,10.04,11.68,18.54,23.47l-35.04,12.59c-4.53-5.44-7.6-8.96-9.19-10.55-11.91-11.79-26.2-17.69-42.87-17.69-28.01,0-47.4,18.37-58.18,55.11,11-21.32,29.88-31.98,56.65-31.98s49.59,9.19,68.47,27.56c18.88,18.37,28.32,40.94,28.32,67.7s-9.44,49.59-28.32,68.47c-18.88,18.88-41.7,28.32-68.47,28.32-22.57,0-42.36-8.73-59.37-26.2Zm.17-56.99c2.15,10.77,7.6,20.52,16.33,29.26,11.8,11.91,26.09,17.86,42.87,17.86s31.1-5.95,42.95-17.86c11.85-11.91,17.78-26.2,17.78-42.87s-5.92-31.1-17.78-42.95c-11.85-11.85-26.17-17.78-42.95-17.78s-31.07,5.89-42.87,17.69c-8.73,8.73-14.18,18.37-16.33,28.92v27.73Z"/>
        <path class="cls-3" d="m526.87,524.49c-4.87-4.76-7.31-10.61-7.31-17.52s2.44-12.76,7.31-17.52c4.88-4.76,10.72-7.14,17.52-7.14s12.48,2.38,17.35,7.14c4.88,4.76,7.31,10.6,7.31,17.52s-2.44,12.76-7.31,17.52c-4.87,4.76-10.66,7.14-17.35,7.14s-12.64-2.38-17.52-7.14Zm-.17-64.81v-175.04h35.21v175.04h-35.21Z"/>
        <path class="cls-3" d="m334.14,344.69l-35.21-12.59c8.62-11.91,14.86-19.79,18.71-23.64,18.94-18.94,41.79-28.41,68.55-28.41s49.44,9.47,68.38,28.41c18.94,18.94,28.41,41.79,28.41,68.55s-9.47,49.61-28.41,68.55c-18.94,18.94-41.73,28.41-68.38,28.41s-49.61-9.47-68.55-28.41c-3.85-3.86-10.09-11.63-18.71-23.3l35.21-12.93c4.54,5.55,7.6,9.13,9.19,10.72,11.8,11.79,26.09,17.69,42.87,17.69s30.93-5.93,42.78-17.78c11.85-11.85,17.78-26.17,17.78-42.95s-5.92-30.93-17.78-42.78c-11.85-11.85-26.11-17.78-42.78-17.78s-31.13,5.89-43.04,17.69c-1.47,1.59-4.48,5.1-9.02,10.55Z"/>
      </g>
    </g>
  </g>
</svg>