<?xml version="1.0" encoding="UTF-8"?>
<svg id="Capa_2" data-name="Capa 2" xmlns="http://www.w3.org/2000/svg" viewBox="0 0 400.5 400.5">
  <defs>
    <style>
      .cls-1, .cls-2, .cls-3, .cls-4 {
        stroke-width: 0px;
      }

      .cls-2 {
        fill: #877a1b;
      }

      .cls-3 {
        fill: #fff;
      }

      .cls-4 {
        fill: #83d34f;
      }
    </style>
  </defs>
  <g id="Capa_1-2" data-name="Capa 1">
    <circle class="cls-2" cx="200.25" cy="200.25" r="200.25"/>
    <g>
      <g>
        <path class="cls-4" d="m328.57,156.22v99.01c0,11.15-9.04,20.19-20.19,20.19h-99.01c-11.15,0-20.18-9.04-20.18-20.19v-99.01c0-11.15,9.04-20.18,20.18-20.18h99.01c11.15,0,20.19,9.04,20.19,20.18Zm-24.1,71.23c1.8-2.95,3.4-5.53,3.14-9.16-.29-4.02-2.57-7.49-4.71-10.77-2.47-3.79-5.11-7.5-7.37-11.41-.15-.26-.49-.37-.76-.2l-13.51,7.97c-.28.17-.36.53-.16.79,5.4,7.23,10.86,16.2,15.18,27,.81,2.02,1.2,3.01,1.74,4.6.14.44.75.52.99.12,1.82-2.98,3.64-5.95,5.46-8.94Zm-8.29,13.57l-5.97-13.08c-.14-.29-.43-.48-.75-.47l-17.33.34c-.43,0-.8-.32-.82-.76l-.22-5.25-12.94,13.64c-.27.29-.3.71-.07,1.03l12.11,16.24.29-5.45c.02-.45.43-.78.87-.74,5.88.48,10.54.09,13.67-.35,4.09-.59,6.93-1.45,9.45-3.51.76-.61,1.33-1.21,1.7-1.63Zm-13.21-47.38l7.54-18.8-4.79,2.6c-.4.21-.89.04-1.09-.36-2.65-5.27-5.42-9.05-7.43-11.49-2.62-3.18-4.85-5.15-7.92-6.24-.92-.32-1.73-.5-2.28-.6l-8.06,11.92c-.18.26-.18.6,0,.88l9.33,14.61c.24.37.14.85-.23,1.1l-4.36,2.92,18.39,3.94c.37.08.77-.13.91-.48Zm-20.98-33.96c.31-.36.05-.91-.42-.91h-10.47c-3.46,0-6.5-.02-9.45,2.09-3.28,2.35-5.05,6.1-6.74,9.64-1.95,4.07-3.73,8.26-5.89,12.23-.14.27-.05.61.22.76l13.84,7.37c.29.15.64.03.77-.27,3.36-8.38,8.16-17.71,15.12-27.03,1.31-1.74,1.94-2.59,3.02-3.89Zm-11.75,69.44c0-.32-.26-.58-.59-.55-8.99.85-19.48.86-30.95-1.06-2.14-.37-3.19-.54-4.84-.91-.45-.1-.83.37-.62.79,1.6,3.1,3.21,6.21,4.8,9.31,1.58,3.07,2.96,5.78,6.19,7.44,3.59,1.84,7.74,1.7,11.66,1.58,4.51-.14,9.05-.47,13.57-.37.31,0,.57-.24.58-.54l.2-15.68Zm-10.02-17.99l-4.93-18.15c-.1-.37-.46-.62-.84-.59l-20.17,1.9,4.51,3.08c.37.25.44.77.18,1.13-3.47,4.77-5.56,8.95-6.81,11.86-1.62,3.79-2.35,6.67-1.91,9.9.13.97.34,1.76.51,2.3l14.28,1.71c.31.03.63-.12.78-.39l8.71-14.99c.22-.37.7-.51,1.08-.3l4.6,2.54Z"/>
        <path class="cls-3" d="m307.61,218.29c.26,3.62-1.33,6.21-3.14,9.16-1.82,2.98-3.64,5.96-5.46,8.94-.25.4-.85.32-.99-.12-.54-1.59-.94-2.58-1.74-4.6-4.32-10.81-9.78-19.77-15.18-27-.2-.26-.12-.62.16-.79l13.51-7.97c.26-.16.6-.06.76.2,2.26,3.91,4.91,7.62,7.37,11.41,2.14,3.28,4.42,6.75,4.71,10.77Z"/>
        <path class="cls-3" d="m290.21,227.93l5.97,13.08c-.37.43-.94,1.02-1.7,1.63-2.53,2.06-5.36,2.92-9.45,3.51-3.13.44-7.79.83-13.67.35-.44-.04-.85.29-.87.74l-.29,5.45-12.11-16.24c-.23-.31-.2-.74.07-1.03l12.94-13.64.22,5.25c.02.43.38.77.82.76l17.33-.34c.32,0,.61.18.75.47Z"/>
        <path class="cls-3" d="m290.51,174.84l-7.54,18.8c-.14.36-.54.56-.91.48l-18.39-3.94,4.36-2.92c.37-.25.47-.73.23-1.1l-9.33-14.61c-.17-.27-.17-.61,0-.88l8.06-11.92c.55.09,1.36.27,2.28.6,3.07,1.09,5.3,3.06,7.92,6.24,2.01,2.44,4.78,6.21,7.43,11.49.2.4.69.57,1.09.36l4.79-2.6Z"/>
        <path class="cls-3" d="m261.57,158.76c.47,0,.72.55.42.91-1.08,1.29-1.71,2.14-3.02,3.89-6.96,9.32-11.77,18.64-15.12,27.03-.13.31-.48.43-.77.27l-13.84-7.37c-.27-.14-.37-.48-.22-.76,2.16-3.97,3.94-8.16,5.89-12.23,1.69-3.54,3.46-7.29,6.74-9.64,2.96-2.11,5.99-2.09,9.45-2.09h10.47Z"/>
        <path class="cls-3" d="m249.65,228.56c.32-.03.6.23.59.55l-.2,15.68c0,.31-.27.55-.58.54-4.51-.09-9.05.23-13.57.37-3.92.12-8.07.26-11.66-1.58-3.23-1.66-4.61-4.37-6.19-7.44-1.6-3.1-3.21-6.21-4.8-9.31-.21-.42.17-.89.62-.79,1.65.37,2.7.54,4.84.91,11.48,1.92,21.97,1.91,30.95,1.06Z"/>
        <path class="cls-3" d="m235.28,192.97l4.93,18.15-4.6-2.54c-.38-.21-.86-.08-1.08.3l-8.71,14.99c-.15.27-.47.43-.78.39l-14.28-1.71c-.17-.54-.38-1.33-.51-2.3-.44-3.22.29-6.1,1.91-9.9,1.25-2.91,3.34-7.09,6.81-11.86.26-.37.19-.88-.18-1.13l-4.51-3.08,20.17-1.9c.38-.03.74.21.84.59Z"/>
      </g>
      <path class="cls-1" d="m308.38,275.93c-33.06-.32-66.02,3.66-99.07,3.98-.58-.05-1.9-.05-2.49-.11-.58-.1-1.89-.25-2.47-.36-11.19-2.14-19.87-12.81-19.38-24.21,1.26-33.01,3.5-66.01,2.48-99.06-.16-8.7,5.09-17.08,13.01-20.74,2.76-1.31,5.82-2.05,8.91-2.16l16.34-.68,8.17-.34c24.48-.85,49.04-1.14,73.53-1.49,1.07-.04,2.54.05,3.6.09.61.1,1.94.25,2.56.37.65.2,1.85.4,2.51.63,10.43,3.16,18.11,13.43,17.89,24.37-.14,21.8-.57,43.59-2.04,65.36-.59,9.21-1.55,23.55-1.98,32.68-.07,1.33-.18,2.94-.48,4.25-1.76,9.85-11.09,17.65-21.08,17.42h0Zm0-1.01c9.79.09,18.4-7.93,18.87-17.72-.23-10.37-1.43-25.15-2.03-35.61-1.47-21.77-1.9-43.55-2.04-65.36.04-6.32-4.35-12.19-10.33-14.13-.38-.09-1.04-.29-1.44-.4-.67-.11-1.56-.3-2.23-.3-11.47-.29-22.96-.31-34.44-.58-16.19-.27-32.81-.6-49.02-1.33,0,0-16.34-.68-16.34-.68-4.71-.25-9.58,1.53-13.05,4.99-2.41,2.34-4.15,5.42-4.94,8.7-.09.46-.24,1.37-.33,1.83-.06.86-.17,2.02-.16,2.88-.98,32.71,1.26,65.36,2.5,98.04.17,7.29,5.69,13.83,12.79,15.33.39.07,1.17.19,1.56.26.4.04,1.19.06,1.59.1,33.04.33,65.99,4.3,99.05,3.98h0Z"/>
    </g>
  </g>
</svg>