<?xml version="1.0" encoding="UTF-8"?>
<svg id="Capa_2" data-name="Capa 2" xmlns="http://www.w3.org/2000/svg" viewBox="0 0 91.06 63.33">
  <defs>
    <style>
      .cls-1 {
        fill: #fff;
        stroke-width: 0px;
      }
    </style>
  </defs>
  <g id="Capa_1-2" data-name="Capa 1">
    <g>
      <path class="cls-1" d="m16.5,14.02L37.64,1.82c2.24-1.3,4.92-1.3,7.16,0,2.24,1.3,3.58,3.61,3.58,6.2v47.28c0,2.59-1.34,4.91-3.58,6.2-1.12.65-2.35.97-3.58.97s-2.46-.32-3.58-.97l-21.06-12.16H3.19c-1.76,0-3.19-1.43-3.19-3.19v-28.95c0-1.76,1.43-3.19,3.19-3.19h13.32Zm24.32,41.97c.33.19.61.1.79,0,.18-.1.39-.31.39-.68V8.03c0-.38-.21-.58-.39-.68-.1-.06-.24-.11-.4-.11-.12,0-.25.03-.39.11l-20.28,11.71v25.23l20.28,11.71ZM6.38,42.98h7.79v-22.58h-7.79v22.58Z"/>
      <path class="cls-1" d="m78.03,62.43c-.62.6-1.42.9-2.22.9s-1.66-.32-2.29-.97c-1.23-1.26-1.2-3.28.07-4.51,7.16-6.95,11.1-16.25,11.1-26.19s-3.94-19.24-11.1-26.19c-1.26-1.23-1.29-3.24-.07-4.51,1.23-1.26,3.24-1.29,4.51-.07,4.08,3.96,7.28,8.59,9.53,13.78,2.33,5.38,3.51,11.09,3.51,16.98s-1.18,11.61-3.51,16.98c-2.25,5.19-5.45,9.83-9.53,13.78Z"/>
      <path class="cls-1" d="m56.91,18.7c-1.46-.99-1.84-2.97-.86-4.43.99-1.46,2.97-1.84,4.43-.86,6.08,4.1,9.71,10.93,9.71,18.25s-3.63,14.15-9.71,18.25c-.55.37-1.17.55-1.78.55-1.02,0-2.03-.49-2.65-1.4-.99-1.46-.6-3.44.86-4.43,4.32-2.92,6.9-7.76,6.9-12.97s-2.58-10.05-6.9-12.97Z"/>
    </g>
  </g>
</svg>