<?xml version="1.0" encoding="UTF-8"?>
<svg id="Capa_2" data-name="Capa 2" xmlns="http://www.w3.org/2000/svg" viewBox="0 0 90.96 90.96">
  <defs>
    <style>
      .cls-1 {
        fill: #fff;
        stroke-width: 0px;
      }
    </style>
  </defs>
  <g id="Capa_1-2" data-name="Capa 1">
    <g>
      <path class="cls-1" d="m42.3,82.5v5.28c0,1.76,1.43,3.18,3.18,3.18s3.18-1.43,3.18-3.18v-5.28c0-1.76-1.43-3.18-3.18-3.18s-3.18,1.43-3.18,3.18Z"/>
      <g>
        <path class="cls-1" d="m75.77,45.48c0-16.7-13.59-30.29-30.29-30.29s-30.29,13.59-30.29,30.29,13.59,30.29,30.29,30.29,30.29-13.59,30.29-30.29Zm-30.29,23.92c-13.19,0-23.92-10.73-23.92-23.92s10.73-23.92,23.92-23.92,23.92,10.73,23.92,23.92-10.73,23.92-23.92,23.92Z"/>
        <path class="cls-1" d="m42.3,3.18v5.28c0,1.76,1.43,3.18,3.18,3.18s3.18-1.43,3.18-3.18V3.18c0-1.76-1.43-3.18-3.18-3.18s-3.18,1.43-3.18,3.18Z"/>
        <path class="cls-1" d="m77.64,13.32c-1.24-1.24-3.26-1.24-4.5,0l-3.73,3.73c-1.24,1.24-1.24,3.26,0,4.5.62.62,1.44.93,2.25.93s1.63-.31,2.25-.93l3.73-3.73c1.24-1.24,1.24-3.26,0-4.5Z"/>
        <path class="cls-1" d="m82.5,48.67h5.28c1.76,0,3.18-1.43,3.18-3.18s-1.43-3.18-3.18-3.18h-5.28c-1.76,0-3.18,1.43-3.18,3.18s1.43,3.18,3.18,3.18Z"/>
        <path class="cls-1" d="m73.14,77.64c.62.62,1.44.93,2.25.93s1.63-.31,2.25-.93c1.24-1.24,1.24-3.26,0-4.5l-3.73-3.73c-1.24-1.24-3.26-1.24-4.5,0-1.24,1.24-1.24,3.26,0,4.5l3.73,3.73Z"/>
        <path class="cls-1" d="m15.57,78.57c.82,0,1.63-.31,2.25-.93l3.73-3.73c1.24-1.24,1.24-3.26,0-4.5-1.24-1.24-3.26-1.24-4.5,0l-3.73,3.73c-1.24,1.24-1.24,3.26,0,4.5.62.62,1.44.93,2.25.93Z"/>
        <path class="cls-1" d="m3.18,48.67h5.28c1.76,0,3.18-1.43,3.18-3.18s-1.43-3.18-3.18-3.18H3.18c-1.76,0-3.18,1.43-3.18,3.18s1.43,3.18,3.18,3.18Z"/>
        <path class="cls-1" d="m13.32,13.32c-1.24,1.24-1.24,3.26,0,4.5l3.73,3.73c.62.62,1.44.93,2.25.93s1.63-.31,2.25-.93c1.24-1.24,1.24-3.26,0-4.5l-3.73-3.73c-1.24-1.24-3.26-1.24-4.5,0Z"/>
      </g>
    </g>
  </g>
</svg>