<?xml version="1.0" encoding="UTF-8"?>
<svg id="Capa_2" data-name="Capa 2" xmlns="http://www.w3.org/2000/svg" viewBox="0 0 40.27 40.27">
  <defs>
    <style>
      .cls-1 {
        fill: #0f407a;
        stroke-width: 0px;
      }
    </style>
  </defs>
  <g id="Capa_1-2" data-name="Capa 1">
    <path class="cls-1" d="m1.19,39.07c.79.8,1.84,1.19,2.88,1.19s2.08-.4,2.88-1.19l13.18-13.18,13.18,13.18c.79.8,1.84,1.19,2.88,1.19s2.08-.4,2.88-1.19c1.59-1.59,1.59-4.17,0-5.76l-13.18-13.18,13.18-13.18c1.59-1.59,1.59-4.17,0-5.76-1.59-1.59-4.17-1.59-5.76,0l-13.18,13.18L6.95,1.19C5.36-.4,2.78-.4,1.19,1.19-.4,2.78-.4,5.36,1.19,6.95l13.18,13.18L1.19,33.32c-1.59,1.59-1.59,4.17,0,5.76Z"/>
  </g>
</svg>