<?xml version="1.0" encoding="UTF-8"?>
<svg id="Capa_2" data-name="Capa 2" xmlns="http://www.w3.org/2000/svg" viewBox="0 0 586.39 526.79">
  <defs>
    <style>
      .cls-1 {
        letter-spacing: 0em;
      }

      .cls-2 {
        fill: #daffc5;
      }

      .cls-2, .cls-3, .cls-4, .cls-5 {
        stroke-width: 0px;
      }

      .cls-3 {
        fill: #0f407a;
      }

      .cls-6 {
        font-family: CaviarDreams-Bold, 'Caviar Dreams';
        font-size: 44.18px;
        font-weight: 700;
      }

      .cls-6, .cls-4 {
        fill: #326ed8;
      }

      .cls-7 {
        fill: none;
        stroke: #66c634;
        stroke-miterlimit: 10;
        stroke-width: 13.98px;
      }

      .cls-5 {
        fill: #66c634;
      }

      .cls-8 {
        letter-spacing: 0em;
      }
    </style>
  </defs>
  <g id="Capa_1-2" data-name="Capa 1">
    <g>
      <g>
        <rect class="cls-2" x="156.75" width="279.88" height="279.88" rx="51.78" ry="51.78"/>
        <g>
          <path class="cls-4" d="m371.5,46.21l-39.28,38.22c-.72.7-1.67,1.09-2.67,1.09h-110.1c-3.44,0-5.14-4.18-2.67-6.58l39.28-38.22c.72-.7,1.67-1.09,2.67-1.09h110.1c3.44,0,5.14,4.18,2.67,6.58Z"/>
          <path class="cls-3" d="m371.5,233.67l-39.28-38.22c-.72-.7-1.67-1.09-2.67-1.09h-110.1c-3.44,0-5.14,4.18-2.67,6.58l39.28,38.22c.72.7,1.67,1.09,2.67,1.09h110.1c3.44,0,5.14-4.18,2.67-6.58Z"/>
          <path class="cls-5" d="m316.14,124.75c-10.85,16.36-28.17,27.99-47.13,32.87-9.25,2.38-19.18,2.73-28.26-.22-14.68-4.77-25.01-10.65-40.12-4.3-.46.19-.95-.23-.82-.71,6.55-24.51,29.31-37.65,54.2-29.7,8.38,2.68,15.97,7.65,24.56,9.58,12.55,2.84,26.73-1.08,37.56-7.56"/>
        </g>
      </g>
      <g>
        <g>
          <g>
            <path class="cls-5" d="m146.07,420.35l14.13,5.05c-3.46,4.78-5.96,7.94-7.51,9.49-7.6,7.6-16.77,11.4-27.52,11.4s-19.85-3.8-27.45-11.4c-7.6-7.6-11.4-16.77-11.4-27.52s3.8-19.91,11.4-27.52c7.6-7.6,16.75-11.4,27.45-11.4s19.91,3.8,27.52,11.4c1.55,1.55,4.05,4.67,7.51,9.35l-14.13,5.19c-1.82-2.23-3.05-3.66-3.69-4.3-4.74-4.73-10.47-7.1-17.21-7.1s-12.42,2.38-17.17,7.14-7.14,10.51-7.14,17.24,2.38,12.42,7.14,17.17c4.76,4.76,10.48,7.14,17.17,7.14s12.5-2.37,17.28-7.1c.59-.64,1.8-2.05,3.62-4.23Z"/>
            <path class="cls-5" d="m211.35,368.46c10.74,0,19.9,3.8,27.48,11.4,7.58,7.6,11.37,16.78,11.37,27.52s-3.79,19.92-11.37,27.52c-7.58,7.6-16.74,11.4-27.48,11.4s-19.85-3.8-27.45-11.4c-7.6-7.6-11.4-16.77-11.4-27.52s3.8-19.91,11.4-27.52c7.6-7.6,16.75-11.4,27.45-11.4Zm-17.24,21.71c-4.76,4.78-7.14,10.52-7.14,17.21s2.38,12.47,7.14,17.21c4.76,4.74,10.5,7.1,17.24,7.1s12.48-2.37,17.24-7.1c4.76-4.73,7.14-10.47,7.14-17.21s-2.38-12.43-7.14-17.21-10.5-7.17-17.24-7.17-12.48,2.39-17.24,7.17Z"/>
          </g>
          <path class="cls-7" d="m7.01,406.87c13.01,7.18,28.89,6.8,41.41-1.01,18.67-11.65,19.15-33.16,19.16-34.94,0-.03-.03-.04-.06-.03-2.27,1.35-5.93,3.2-10.71,4.17-6.72,1.36-10.31-.1-18.16.75-1.21.13-7.36.84-12.15,2.84-9.28,3.86-19.61,15.07-19.5,29.23.14,18.61,18.22,31.65,31.65,31.65,11.79,0,22.08-6.45,27.52-16.01"/>
          <g>
            <path class="cls-3" d="m278.64,335.65v107.44h-13.96v-107.44h13.96Z"/>
            <path class="cls-3" d="m332.93,368.4c10.56,0,19.56,3.74,27.01,11.21,7.45,7.47,11.17,16.49,11.17,27.04s-3.72,19.57-11.17,27.04c-7.45,7.47-16.45,11.21-27.01,11.21s-19.51-3.73-26.98-11.21c-7.47-7.47-11.21-16.48-11.21-27.04s3.73-19.57,11.21-27.04c7.47-7.47,16.46-11.21,26.98-11.21Zm-16.94,21.34c-4.68,4.7-7.01,10.33-7.01,16.91s2.34,12.26,7.01,16.91c4.67,4.65,10.32,6.98,16.94,6.98s12.27-2.33,16.94-6.98c4.68-4.65,7.01-10.29,7.01-16.91s-2.34-12.21-7.01-16.91-10.32-7.05-16.94-7.05-12.27,2.35-16.94,7.05Z"/>
            <path class="cls-3" d="m447.15,378.8v-4.76h13.96v51.34c0,13.42-3.65,23.78-10.94,31.07-7.47,6.58-16.49,9.86-27.04,9.86s-19.57-3.29-27.04-9.86c-1.52-1.52-3.96-4.61-7.31-9.26l13.82-4.97c1.79,2.15,3,3.53,3.62,4.16,4.7,4.65,10.33,6.98,16.91,6.98,11.05,0,18.7-7.25,22.95-21.74-4.34,8.41-11.79,12.62-22.35,12.62s-19.56-3.62-27.01-10.87c-7.45-7.25-11.17-16.15-11.17-26.71s3.72-19.56,11.17-27.01c7.45-7.45,16.45-11.17,27.01-11.17,8.9,0,16.71,3.45,23.42,10.33Zm-.07,22.48c-.85-4.25-3-8.1-6.44-11.54-4.65-4.7-10.29-7.05-16.91-7.05s-12.27,2.35-16.94,7.05-7.01,10.33-7.01,16.91,2.34,12.27,7.01,16.94c4.68,4.68,10.32,7.01,16.94,7.01s12.26-2.33,16.91-6.98c3.44-3.44,5.59-7.25,6.44-11.41v-10.94Z"/>
            <path class="cls-3" d="m496.47,348.47c1.92,1.88,2.89,4.18,2.89,6.91s-.96,5.03-2.89,6.91c-1.92,1.88-4.23,2.82-6.91,2.82s-4.92-.94-6.84-2.82c-1.92-1.88-2.89-4.18-2.89-6.91s.96-5.03,2.89-6.91c1.92-1.88,4.2-2.82,6.84-2.82s4.99.94,6.91,2.82Zm.07,25.57v69.05h-13.89v-69.05h13.89Z"/>
            <path class="cls-3" d="m572.5,419.4l13.89,4.97c-3.4,4.7-5.86,7.81-7.38,9.33-7.47,7.47-16.49,11.21-27.04,11.21s-19.51-3.73-26.98-11.21c-7.47-7.47-11.21-16.48-11.21-27.04s3.73-19.57,11.21-27.04c7.47-7.47,16.46-11.21,26.98-11.21s19.57,3.74,27.04,11.21c1.52,1.52,3.98,4.59,7.38,9.19l-13.89,5.1c-1.79-2.19-3-3.6-3.62-4.23-4.65-4.65-10.29-6.98-16.91-6.98s-12.2,2.34-16.88,7.01c-4.68,4.68-7.01,10.32-7.01,16.94s2.34,12.2,7.01,16.88c4.68,4.68,10.3,7.01,16.88,7.01s12.28-2.33,16.98-6.98c.58-.63,1.77-2.01,3.56-4.16Z"/>
          </g>
        </g>
        <text class="cls-6" transform="translate(178.81 514.19)"><tspan x="0" y="0">ca</tspan><tspan class="cls-1" x="57.44" y="0">r</tspan><tspan x="72.26" y="0">d </tspan><tspan class="cls-8" x="117.75" y="0">g</tspan><tspan x="147.74" y="0">ame</tspan></text>
      </g>
    </g>
  </g>
</svg>