<?xml version="1.0" encoding="UTF-8"?>
<svg id="Capa_2" data-name="Capa 2" xmlns="http://www.w3.org/2000/svg" viewBox="0 0 512 512">
  <defs>
    <style>
      .cls-1 {
        fill: #daffc5;
      }

      .cls-1, .cls-2, .cls-3, .cls-4 {
        stroke-width: 0px;
      }

      .cls-2 {
        fill: #0f407a;
      }

      .cls-3 {
        fill: #326ed8;
      }

      .cls-4 {
        fill: #66c634;
      }
    </style>
  </defs>
  <g id="Capa_1-2" data-name="Capa 1">
    <g>
      <rect class="cls-1" width="512" height="512"/>
      <g>
        <path class="cls-3" d="m392.84,84.53l-71.86,69.92c-1.31,1.27-3.06,1.99-4.89,1.99H114.68c-6.29,0-9.4-7.65-4.89-12.04l71.86-69.92c1.31-1.27,3.06-1.99,4.89-1.99h201.41c6.29,0,9.4,7.65,4.89,12.04Z"/>
        <path class="cls-2" d="m392.84,427.47l-71.86-69.92c-1.31-1.27-3.06-1.99-4.89-1.99H114.68c-6.29,0-9.4,7.65-4.89,12.04l71.86,69.92c1.31,1.27,3.06,1.99,4.89,1.99h201.41c6.29,0,9.4-7.65,4.89-12.04Z"/>
        <path class="cls-4" d="m291.57,228.21c-19.84,29.93-51.53,51.2-86.22,60.14-16.91,4.36-35.08,4.99-51.69-.41-26.86-8.73-45.75-19.47-73.39-7.86-.84.35-1.74-.42-1.5-1.3,11.99-44.84,53.61-68.88,99.15-54.34,15.33,4.9,29.22,13.99,44.93,17.53,22.97,5.19,48.9-1.98,68.71-13.82"/>
      </g>
    </g>
  </g>
</svg>