<?xml version="1.0" encoding="UTF-8"?>
<svg id="Capa_2" data-name="Capa 2" xmlns="http://www.w3.org/2000/svg" viewBox="0 0 714.29 232.83">
  <defs>
    <style>
      .cls-1 {
        fill: #326ed8;
        font-family: CaviarDreams-Bold, 'Caviar Dreams';
        font-size: 53.81px;
        font-weight: 700;
      }

      .cls-2 {
        fill: none;
        stroke: #66c634;
        stroke-miterlimit: 10;
        stroke-width: 17.03px;
      }

      .cls-3 {
        letter-spacing: 0em;
      }

      .cls-4 {
        fill: #0f407a;
      }

      .cls-4, .cls-5 {
        stroke-width: 0px;
      }

      .cls-6 {
        letter-spacing: 0em;
      }

      .cls-5 {
        fill: #66c634;
      }
    </style>
  </defs>
  <g id="Capa_1-2" data-name="Capa 1">
    <g>
      <g>
        <g>
          <path class="cls-5" d="m177.93,103.18l17.22,6.16c-4.21,5.82-7.27,9.68-9.15,11.56-9.26,9.26-20.43,13.89-33.52,13.89s-24.18-4.63-33.44-13.89c-9.26-9.26-13.89-20.43-13.89-33.52s4.63-24.26,13.89-33.52c9.26-9.26,20.41-13.89,33.44-13.89s24.26,4.63,33.52,13.89c1.88,1.89,4.94,5.68,9.15,11.4l-17.22,6.32c-2.22-2.72-3.72-4.46-4.49-5.24-5.77-5.77-12.75-8.65-20.96-8.65s-15.13,2.9-20.92,8.69-8.69,12.8-8.69,21,2.9,15.13,8.69,20.92c5.79,5.79,12.77,8.69,20.92,8.69s15.22-2.88,21.04-8.65c.72-.78,2.19-2.5,4.41-5.16Z"/>
          <path class="cls-5" d="m257.45,39.96c13.09,0,24.25,4.63,33.48,13.89,9.23,9.26,13.85,20.43,13.85,33.52s-4.62,24.26-13.85,33.52c-9.23,9.26-20.39,13.89-33.48,13.89s-24.18-4.63-33.44-13.89c-9.26-9.26-13.89-20.43-13.89-33.52s4.63-24.26,13.89-33.52c9.26-9.26,20.41-13.89,33.44-13.89Zm-21,26.45c-5.8,5.82-8.69,12.81-8.69,20.96s2.9,15.19,8.69,20.96c5.79,5.77,12.79,8.65,21,8.65s15.21-2.88,21-8.65c5.79-5.77,8.69-12.75,8.69-20.96s-2.9-15.14-8.69-20.96c-5.79-5.82-12.8-8.73-21-8.73s-15.21,2.91-21,8.73Z"/>
        </g>
        <path class="cls-2" d="m8.54,86.75c15.85,8.74,35.19,8.28,50.44-1.23,22.74-14.19,23.33-40.39,23.33-42.56,0-.04-.04-.05-.07-.03-2.77,1.65-7.22,3.9-13.04,5.08-8.19,1.66-12.55-.12-22.12.91-1.47.16-8.97,1.03-14.8,3.45-11.3,4.7-23.89,18.36-23.75,35.61.18,22.67,22.2,38.56,38.56,38.56,14.36,0,26.89-7.85,33.53-19.5"/>
        <g>
          <path class="cls-4" d="m339.42,0v130.87h-17V0h17Z"/>
          <path class="cls-4" d="m405.55,39.89c12.86,0,23.83,4.55,32.9,13.65,9.07,9.1,13.61,20.08,13.61,32.94s-4.54,23.84-13.61,32.94c-9.07,9.1-20.04,13.65-32.9,13.65s-23.76-4.55-32.86-13.65c-9.1-9.1-13.65-20.08-13.65-32.94s4.55-23.84,13.65-32.94c9.1-9.1,20.05-13.65,32.86-13.65Zm-20.64,25.99c-5.7,5.72-8.54,12.59-8.54,20.6s2.85,14.93,8.54,20.6c5.69,5.67,12.57,8.5,20.64,8.5s14.94-2.83,20.64-8.5c5.69-5.67,8.54-12.53,8.54-20.6s-2.85-14.88-8.54-20.6c-5.69-5.72-12.58-8.58-20.64-8.58s-14.95,2.86-20.64,8.58Z"/>
          <path class="cls-4" d="m544.68,52.56v-5.8h17v62.53c0,16.35-4.44,28.96-13.32,37.85-9.1,8.01-20.08,12.02-32.94,12.02s-23.84-4.01-32.94-12.02c-1.85-1.85-4.82-5.61-8.91-11.28l16.84-6.05c2.18,2.62,3.65,4.3,4.41,5.07,5.72,5.67,12.59,8.5,20.6,8.5,13.46,0,22.78-8.83,27.96-26.48-5.29,10.25-14.36,15.37-27.22,15.37s-23.83-4.41-32.9-13.24c-9.07-8.83-13.61-19.67-13.61-32.53s4.54-23.83,13.61-32.9c9.07-9.07,20.04-13.61,32.9-13.61,10.84,0,20.35,4.2,28.53,12.59Zm-.08,27.38c-1.04-5.18-3.65-9.86-7.85-14.06-5.67-5.72-12.54-8.58-20.6-8.58s-14.95,2.86-20.64,8.58c-5.69,5.72-8.54,12.59-8.54,20.6s2.85,14.95,8.54,20.64c5.69,5.7,12.58,8.54,20.64,8.54s14.93-2.83,20.6-8.5c4.2-4.2,6.81-8.83,7.85-13.9v-13.32Z"/>
          <path class="cls-4" d="m604.76,15.61c2.34,2.29,3.51,5.1,3.51,8.42s-1.17,6.13-3.51,8.42c-2.34,2.29-5.15,3.43-8.42,3.43s-6-1.14-8.34-3.43c-2.34-2.29-3.51-5.09-3.51-8.42s1.17-6.13,3.51-8.42c2.34-2.29,5.12-3.43,8.34-3.43s6.08,1.14,8.42,3.43Zm.08,31.14v84.11h-16.92V46.76h16.92Z"/>
          <path class="cls-4" d="m697.37,102.02l16.92,6.05c-4.14,5.72-7.14,9.51-8.99,11.36-9.1,9.1-20.08,13.65-32.94,13.65s-23.76-4.55-32.86-13.65c-9.1-9.1-13.65-20.08-13.65-32.94s4.55-23.84,13.65-32.94c9.1-9.1,20.05-13.65,32.86-13.65s23.84,4.55,32.94,13.65c1.85,1.85,4.85,5.59,8.99,11.2l-16.92,6.21c-2.18-2.67-3.65-4.39-4.41-5.15-5.67-5.67-12.54-8.5-20.6-8.5s-14.86,2.85-20.56,8.54c-5.69,5.7-8.54,12.58-8.54,20.64s2.85,14.86,8.54,20.56c5.69,5.7,12.55,8.54,20.56,8.54s14.96-2.83,20.68-8.5c.71-.76,2.15-2.45,4.33-5.07Z"/>
        </g>
      </g>
      <text class="cls-1" transform="translate(217.81 217.49)"><tspan x="0" y="0">ca</tspan><tspan class="cls-6" x="69.97" y="0">r</tspan><tspan x="88.02" y="0">d </tspan><tspan class="cls-3" x="143.44" y="0">g</tspan><tspan x="179.96" y="0">ame</tspan></text>
    </g>
  </g>
</svg>