<?xml version="1.0" encoding="UTF-8"?>
<svg id="Capa_2" data-name="Capa 2" xmlns="http://www.w3.org/2000/svg" viewBox="0 0 340.93 340.93">
  <defs>
    <style>
      .cls-1 {
        fill: #daffc5;
      }

      .cls-1, .cls-2, .cls-3, .cls-4 {
        stroke-width: 0px;
      }

      .cls-2 {
        fill: #0f407a;
      }

      .cls-3 {
        fill: #326ed8;
      }

      .cls-4 {
        fill: #66c634;
      }
    </style>
  </defs>
  <g id="Capa_1-2" data-name="Capa 1">
    <g>
      <rect class="cls-1" width="340.93" height="340.93" rx="63.07" ry="63.07"/>
      <g>
        <path class="cls-3" d="m261.58,56.28l-47.85,46.56c-.87.85-2.04,1.32-3.26,1.32H76.36c-4.19,0-6.26-5.09-3.26-8.02l47.85-46.56c.87-.85,2.04-1.32,3.26-1.32h134.12c4.19,0,6.26,5.09,3.26,8.02Z"/>
        <path class="cls-2" d="m261.58,284.64l-47.85-46.56c-.87-.85-2.04-1.32-3.26-1.32H76.36c-4.19,0-6.26,5.09-3.26,8.02l47.85,46.56c.87.85,2.04,1.32,3.26,1.32h134.12c4.19,0,6.26-5.09,3.26-8.02Z"/>
        <path class="cls-4" d="m194.15,151.96c-13.21,19.93-34.31,34.09-57.41,40.04-11.26,2.9-23.36,3.32-34.42-.27-17.89-5.81-30.46-12.97-48.87-5.23-.56.24-1.16-.28-1-.87,7.98-29.86,35.7-45.87,66.02-36.18,10.21,3.26,19.46,9.31,29.91,11.67,15.29,3.45,32.56-1.32,45.75-9.2"/>
      </g>
    </g>
  </g>
</svg>