<?xml version="1.0" encoding="UTF-8"?>
<svg id="Capa_2" data-name="Capa 2" xmlns="http://www.w3.org/2000/svg" viewBox="0 0 382.48 313.74">
  <defs>
    <style>
      .cls-1 {
        fill: #1e2322;
      }

      .cls-1, .cls-2, .cls-3, .cls-4, .cls-5, .cls-6, .cls-7, .cls-8, .cls-9, .cls-10, .cls-11, .cls-12, .cls-13, .cls-14, .cls-15 {
        stroke-width: 0px;
      }

      .cls-16 {
        stroke-width: 1.52px;
      }

      .cls-16, .cls-17, .cls-18 {
        fill: none;
        stroke: #000;
        stroke-linecap: round;
        stroke-linejoin: round;
      }

      .cls-2 {
        fill: #dbdb3e;
      }

      .cls-4 {
        fill: #b2bfbe;
      }

      .cls-5 {
        fill: #445451;
      }

      .cls-17 {
        stroke-width: 3.04px;
      }

      .cls-6 {
        fill: #a8a527;
      }

      .cls-7 {
        fill: #859e9b;
      }

      .cls-8 {
        fill: #9b2323;
      }

      .cls-9 {
        fill: #647a77;
      }

      .cls-18 {
        stroke-width: 1.14px;
      }

      .cls-10 {
        fill: #4172d6;
      }

      .cls-11 {
        fill: #2458a3;
      }

      .cls-12 {
        fill: #c6c6c6;
      }

      .cls-13 {
        fill: #dd3c3c;
      }

      .cls-14 {
        fill: #1d1d1b;
      }

      .cls-15 {
        fill: #bad3cf;
      }
    </style>
  </defs>
  <g id="Capa_2-2" data-name="Capa 2">
    <g>
      <g>
        <rect class="cls-5" x="317.92" y="137.27" width="23.32" height="7.56"/>
        <rect class="cls-9" x="317.92" y="132.76" width="23.32" height="4.51"/>
        <path class="cls-7" d="m341.24,124.69v8.07h-23.32v-.02h.93l7.72-32.63c.5-2.11-1.11-4.15-3.28-4.15h-2.67c-.49-.23-1.05-.15-1.44,0h-1.25v-5.04c0-25.12-14.72-46.8-36-56.88-.09-2.05-.35-4.04-.79-5.98,33.45,1.47,60.1,29.06,60.1,62.87v33.77Z"/>
        <path class="cls-11" d="m323.29,95.97c2.17,0,3.78,2.04,3.28,4.15l-7.72,32.63h-.93v-12.14c1.02-4.27,1.81-7.97,2.43-11.04,1.25-6.14,2.37-12.55.26-13.59h2.67Z"/>
        <path class="cls-10" d="m319.17,95.97h1.44c2.11,1.05.99,7.46-.26,13.59-.62,3.07-1.41,6.77-2.43,11.04v-10.62c.27-.55.43-1.15.43-1.81v-2.25c0-.61-.15-1.2-.43-1.7v-8.26h1.25Z"/>
        <rect class="cls-9" x="189.07" y="137.27" width="128.85" height="7.56"/>
        <polygon class="cls-7" points="317.92 132.76 317.92 137.27 189.07 137.27 189.07 132.76 211.45 132.76 211.46 132.82 228.6 132.82 228.61 132.76 256.59 132.76 256.59 132.77 273.72 132.77 273.72 132.76 317.92 132.76"/>
        <path class="cls-4" d="m317.92,132.74v.02h-44.2l7.72-32.6c.5-2.11-1.11-4.15-3.28-4.15h-2.67c-.49-.23-1.05-.15-1.44,0h-21.89c-2.17,0-3.78,2.04-3.28,4.15l7.72,32.6h-27.98l7.7-32.55c.5-2.13-1.11-4.15-3.28-4.15h-2.67c-.49-.24-1.05-.14-1.46,0h-21.87c-2.17,0-3.78,2.02-3.28,4.15l7.7,32.55h-22.37v-41.83c0-34.75-28.18-62.93-62.93-62.93h71.83c-.55,2.4-.84,4.91-.84,7.47v23.03h10.36v8.07h75.98v-14.4h-1.52v-16.69c0-.49-.02-.96-.03-1.43,21.28,10.09,36,31.76,36,56.88v5.04h-20.64c-2.17,0-3.78,2.04-3.28,4.15l7.72,32.63h16.21Z"/>
        <path class="cls-11" d="m317.92,120.61v12.14h-3.05v-.09c1.2-4.39,2.2-8.41,3.05-12.04Z"/>
        <path class="cls-10" d="m317.92,109.99v10.62c-.85,3.63-1.85,7.66-3.05,12.04v.09h-13.15l-7.72-32.63c-.5-2.11,1.11-4.15,3.28-4.15h20.64v8.26c-.59-1.11-1.75-1.88-3.08-1.93-.18-.02-.36-.03-.55-.03h-7.55c-.18,0-.36.02-.55.03-1.94.08-3.49,1.67-3.49,3.63v2.25c0,2.23,1.81,4.06,4.04,4.06h7.55c1.59,0,2.96-.91,3.63-2.25Zm-2.04,13.69c.21-.35.41-.65.38-1.08-.05-.47-.3-.88-.56-1.28-.29-.44-.59-.88-.87-1.34-.02-.03-.06-.05-.09-.03l-1.58.94s-.05.06-.03.09c.64.85,1.28,1.91,1.79,3.17.09.24.14.36.2.55.03.05.09.06.12.02l.64-1.05Zm-.97,1.59l-.7-1.55s-.05-.05-.09-.05l-2.04.05s-.09-.05-.09-.09l-.03-.62-1.52,1.61s-.05.08-.02.12l1.43,1.9.03-.64s.06-.09.11-.09c.7.06,1.25.02,1.61-.03.49-.08.82-.18,1.11-.43.09-.06.15-.14.2-.18Zm-1.55-5.57l.88-2.22-.56.3s-.11.02-.12-.03c-.32-.62-.64-1.06-.88-1.35-.3-.38-.56-.61-.93-.74-.11-.03-.2-.05-.27-.06l-.94,1.4s-.03.08,0,.11l1.09,1.72s.02.11-.03.12l-.52.35,2.17.47s.09-.02.11-.06Zm-2.48-3.99s.02-.11-.05-.11h-1.23c-.41,0-.76,0-1.11.24-.39.27-.59.71-.79,1.14-.23.47-.44.97-.7,1.43-.02.03,0,.08.03.09l1.63.87s.08.02.09-.03c.39-.99.96-2.08,1.78-3.17.15-.21.23-.3.35-.46Zm-1.4,10.01l.02-1.84s-.03-.08-.06-.08c-1.06.11-2.29.11-3.65-.12-.24-.05-.38-.06-.56-.11-.06-.02-.11.05-.08.09.18.36.38.73.56,1.09s.35.68.73.88c.43.21.91.2,1.37.18.53-.02,1.06-.05,1.59-.05.05,0,.08-.03.08-.06Zm-1.15-3.96l-.58-2.13s-.06-.08-.11-.08l-2.37.23.53.36s.05.09.02.14c-.41.55-.65,1.05-.79,1.38-.2.46-.29.79-.23,1.17.02.12.03.21.06.27l1.67.2s.08-.02.09-.05l1.03-1.76s.08-.06.12-.03l.55.29Z"/>
        <path class="cls-11" d="m317.92,108.4v1.59c-.67,1.34-2.04,2.25-3.63,2.25h-7.55c-2.23,0-4.04-1.82-4.04-4.06v-1.5c0,2.02,1.63,3.65,3.63,3.65h8.38c1.4,0,2.6-.77,3.2-1.93Z"/>
        <path class="cls-14" d="m317.92,104.52v3.87c-.61,1.15-1.81,1.93-3.2,1.93h-8.38c-2,0-3.63-1.63-3.63-3.65v-.35c0-2.05,1.52-3.75,3.49-4.03h8.64c1.37.2,2.49,1.05,3.08,2.22Z"/>
        <polygon class="cls-7" points="283.47 52.17 283.47 66.57 207.5 66.57 207.5 58.5 208.87 58.5 270.23 58.5 281.96 58.5 281.96 52.17 283.47 52.17"/>
        <rect class="cls-12" x="270.23" y="52.17" width="11.73" height="6.33"/>
        <path class="cls-12" d="m281.96,35.47v16.69h-11.73v-16.69c0-1.96-.17-3.87-.5-5.74,4.25,1.02,8.34,2.48,12.2,4.31.02.47.03.94.03,1.43Z"/>
        <path class="cls-6" d="m278.16,96.02c2.17,0,3.78,2.04,3.28,4.15l-7.72,32.6h-3.98v-.06c2.6-9.55,4.33-17.41,5.48-23.09,1.25-6.14,2.37-12.55.26-13.59h2.67Z"/>
        <path class="cls-12" d="m281.14,28.06c.44,1.94.7,3.93.79,5.98-3.86-1.84-7.94-3.3-12.2-4.31-.08-.58-.2-1.15-.33-1.73h8.92c.94,0,1.88.02,2.83.06Z"/>
        <path class="cls-12" d="m281.14,28.06c-.94-.05-1.88-.06-2.83-.06h-8.92c-3.16-14.11-15.13-24.91-29.85-26.31,1.06-.12,2.16-.17,3.27-.17h5.18c16.21,0,29.77,11.36,33.14,26.54Z"/>
        <path class="cls-2" d="m274.04,96.02h1.44c2.11,1.05.99,7.46-.26,13.59-1.15,5.68-2.89,13.53-5.48,23.09v.06h-13.15l-7.72-32.6c-.5-2.11,1.11-4.15,3.28-4.15h21.89Zm-.81,10.71v-.74c0-1.96-1.58-3.57-3.52-3.63-.18-.02-.36-.03-.55-.03h-7.55c-.18,0-.36.02-.55.03-1.94.08-3.49,1.67-3.49,3.63v2.25c0,2.23,1.81,4.06,4.04,4.06h7.55c2.25,0,4.06-1.82,4.06-4.06v-1.14c.02-.12.02-.24.02-.36Zm-2.48,17c.21-.35.41-.65.38-1.08-.03-.47-.3-.88-.56-1.28-.29-.44-.59-.88-.87-1.34-.02-.03-.06-.05-.09-.03l-1.58.94s-.05.06-.03.09c.64.85,1.29,1.91,1.79,3.17.09.24.14.36.2.55.03.05.09.06.12.02l.64-1.05Zm-.97,1.59l-.7-1.55s-.05-.05-.09-.05l-2.04.03s-.09-.03-.09-.09l-.03-.61-1.52,1.59s-.03.09-.02.12l1.43,1.91.03-.64c0-.06.06-.09.11-.09.7.06,1.25.02,1.61-.05.49-.06.82-.17,1.11-.41.09-.06.15-.14.2-.18Zm-1.55-5.57l.88-2.22-.56.3s-.11.02-.12-.03c-.32-.62-.64-1.08-.88-1.35-.3-.38-.56-.61-.93-.74-.11-.03-.2-.06-.27-.06l-.94,1.4s-.03.08,0,.11l1.09,1.72s.02.09-.03.12l-.52.35,2.17.46s.09,0,.11-.05Zm-2.48-3.99s.02-.11-.05-.11h-1.23c-.41,0-.76-.02-1.11.24-.38.27-.59.71-.79,1.12-.23.49-.44.97-.7,1.44-.02.03,0,.08.03.09l1.63.87s.08,0,.09-.03c.39-.99.96-2.08,1.78-3.17.15-.21.23-.3.35-.46Zm-1.4,10.01l.02-1.85s-.03-.06-.06-.06c-1.06.11-2.29.11-3.65-.12-.24-.05-.38-.06-.56-.11-.06-.02-.11.05-.08.09.18.36.38.73.56,1.09s.35.68.73.88c.43.21.91.2,1.37.18.53-.02,1.06-.06,1.59-.05.05,0,.08-.03.08-.06Zm-1.15-3.96l-.58-2.13s-.06-.08-.11-.08l-2.37.23.53.36s.05.09.02.12c-.41.56-.65,1.06-.79,1.4-.2.46-.29.79-.23,1.17.02.11.03.2.06.27l1.67.2s.08-.02.09-.05l1.03-1.76s.08-.06.12-.05l.55.3Z"/>
        <path class="cls-6" d="m273.22,107.09v1.14c0,2.23-1.81,4.06-4.06,4.06h-7.55c-2.23,0-4.04-1.82-4.04-4.06v-1.5c0,2,1.63,3.63,3.63,3.63h8.38c1.88,0,3.43-1.43,3.63-3.27Z"/>
        <path class="cls-14" d="m273.22,106.38v.71c-.2,1.84-1.75,3.27-3.63,3.27h-8.38c-2,0-3.63-1.63-3.63-3.63v-.35c0-2.05,1.52-3.75,3.49-4.03h8.64c1.99.27,3.51,1.97,3.51,4.03Z"/>
        <path class="cls-7" d="m266.95,37.42c.02.12.02.24.02.35,0,1.41-.67,2.48-1.4,3.69-.81,1.32-1.61,2.64-2.42,3.95-.11.18-.38.15-.44-.05-.24-.71-.41-1.14-.77-2.04-1.91-4.78-4.31-8.73-6.71-11.94-.08-.12-.05-.27.08-.35l4.8-2.84c.65.06,1.32.12,1.97.2.88,1.44,1.87,2.84,2.79,4.25.94,1.46,1.96,2.99,2.08,4.77Z"/>
        <path class="cls-7" d="m261.24,46.03l.65,1.43c-.17.18-.41.46-.74.73-1.12.9-2.37,1.29-4.18,1.55-1.38.2-3.45.36-6.05.15-.2-.02-.38.12-.38.32l-.11,1.96h-.36l-5.01-6.73c-.05-.06-.08-.14-.08-.2,0-.09.05-.18.11-.24l5.73-6.03.09,2.31c0,.2.17.35.36.35l7.66-.15c.14-.02.27.08.33.2l1.97,4.36Z"/>
        <path class="cls-7" d="m259.39,18.2l-3.33,8.31c-.05.14-.2.21-.33.21h-.08l-8.13-1.73,1.93-1.31c.17-.11.21-.32.11-.47l-4.13-6.47c-.08-.11-.08-.26.02-.38l2.67-3.96.88-1.31c.24.05.61.12,1.02.26,1.35.49,2.34,1.35,3.49,2.76.9,1.08,2.11,2.75,3.28,5.07.09.18.3.26.49.17l2.11-1.15Z"/>
        <path class="cls-7" d="m246.6,11.1c.21,0,.32.24.18.39-.47.58-.76.96-1.34,1.73-3.07,4.12-5.19,8.23-6.68,11.94-.05.14-.21.2-.33.12l-2.58-1.37-3.54-1.88c-.12-.08-.17-.23-.09-.33.94-1.76,1.73-3.62,2.6-5.42.74-1.55,1.53-3.22,2.98-4.25,1.31-.94,2.66-.93,4.18-.93h4.63Z"/>
        <path class="cls-7" d="m241.58,42.2l-.05,2.99-.05,3.93c0,.14-.12.24-.24.24-2-.05-4.01.11-6.01.17-1.73.05-3.55.11-5.15-.7-1.43-.74-2.04-1.94-2.73-3.3-.7-1.37-1.41-2.75-2.13-4.12-.09-.18.08-.39.27-.35.73.17,1.2.24,2.14.41,5.07.85,9.72.84,13.69.47.15-.02.26.09.26.24Z"/>
        <path class="cls-7" d="m235.46,28l1.69,6.24-2.02-1.12c-.18-.09-.38-.03-.49.14l-3.84,6.62c-.08.12-.21.18-.35.17l-4.77-.56-1.55-.18c-.08-.24-.17-.59-.23-1.02-.2-1.43.14-2.7.85-4.37.55-1.29,1.47-3.14,3.01-5.24.12-.17.09-.39-.08-.5l-.24-.17h8.02Z"/>
        <path class="cls-8" d="m233.03,96.06c2.17,0,3.78,2.02,3.28,4.15l-7.7,32.55h-3.99v-.02c2.6-9.55,4.33-17.41,5.48-23.09,1.25-6.14,2.37-12.56.26-13.59h2.67Z"/>
        <path class="cls-13" d="m228.9,96.06h1.46c2.11,1.03.99,7.46-.26,13.59-1.15,5.68-2.89,13.53-5.48,23.09v.02h-13.17l-7.7-32.55c-.5-2.13,1.11-4.15,3.28-4.15h21.87Zm-.79,10.71v-.74c0-1.96-1.58-3.57-3.52-3.63-.18-.02-.36-.03-.55-.03h-7.55c-.18,0-.36.02-.55.03-1.94.08-3.49,1.67-3.49,3.63v2.25c0,2.23,1.81,4.04,4.04,4.04h7.55c2.25,0,4.06-1.81,4.06-4.04v-1.14c.02-.12.02-.24.02-.36Zm-2.48,16.98c.21-.33.41-.64.38-1.06-.03-.49-.3-.88-.56-1.28-.29-.44-.59-.88-.87-1.34-.02-.03-.06-.05-.09-.03l-1.58.94s-.05.06-.03.09c.64.85,1.29,1.9,1.79,3.17.09.24.14.35.2.55.03.05.09.06.12.02.21-.35.43-.7.64-1.06Zm-.97,1.61l-.7-1.55s-.05-.05-.09-.05l-2.04.03s-.09-.03-.09-.09l-.03-.61-1.52,1.59s-.03.09-.02.12l1.43,1.91.03-.64c0-.06.06-.09.11-.09.7.06,1.25.02,1.61-.05.49-.06.82-.17,1.11-.41.09-.08.15-.14.2-.18Zm-1.55-5.57l.88-2.22-.56.3s-.11,0-.12-.05c-.32-.61-.64-1.06-.88-1.35-.3-.36-.56-.59-.93-.73-.11-.03-.2-.06-.27-.08l-.94,1.41s-.03.06,0,.11l1.09,1.72s.02.09-.03.12l-.52.35,2.17.46s.09-.02.11-.05Zm-2.48-3.99s.02-.12-.05-.12h-1.23c-.41,0-.76,0-1.11.26-.38.27-.59.71-.79,1.12-.23.49-.44.97-.7,1.44-.02.03,0,.08.03.09l1.63.87s.08,0,.09-.03c.39-.99.96-2.08,1.78-3.17.15-.21.23-.3.35-.46Zm-1.38,8.16s-.03-.06-.06-.06c-1.06.11-2.29.11-3.65-.12-.24-.05-.38-.06-.56-.11-.06-.02-.11.05-.08.09.18.36.38.73.56,1.09s.35.68.73.88c.43.21.91.2,1.37.18.53-.02,1.06-.06,1.59-.05.05,0,.08-.03.08-.06l.02-1.85Zm-1.17-2.11l-.58-2.14s-.06-.06-.11-.06l-2.37.23.53.35s.05.09.02.14c-.41.56-.65,1.06-.79,1.4-.2.44-.29.79-.23,1.17.02.11.03.2.06.27l1.67.2s.08-.02.09-.05l1.03-1.76s.08-.06.12-.05l.55.3Z"/>
        <path class="cls-8" d="m228.1,107.14v1.14c0,2.23-1.81,4.04-4.06,4.04h-7.55c-2.23,0-4.04-1.81-4.04-4.04v-1.5c0,2,1.63,3.63,3.63,3.63h8.38c1.88,0,3.43-1.43,3.63-3.27Z"/>
        <path class="cls-14" d="m228.1,106.42v.71c-.2,1.84-1.75,3.27-3.63,3.27h-8.38c-2,0-3.63-1.63-3.63-3.63v-.35c0-2.07,1.52-3.75,3.49-4.03h8.64c1.99.27,3.51,1.96,3.51,4.03Z"/>
        <path class="cls-4" d="m197.98,28h11.73c-.55,2.4-.84,4.91-.84,7.47v16.69h-1.37v6.33h-10.36v-23.03c0-2.57.29-5.07.84-7.47Z"/>
        <rect class="cls-4" x="207.5" y="52.17" width="1.37" height="6.33"/>
        <path class="cls-7" d="m189.07,137.27v7.56h-16.71v-53.91c0-32.44-24.56-59.16-56.11-62.56,2.25-.24,4.51-.36,6.82-.36h3.07c34.75,0,62.93,28.18,62.93,62.93v46.34Z"/>
        <path class="cls-4" d="m78.57,115.75l-7.82,7.58-7.85,7.59-2.75,2.66v-42.65c0-32.44,24.56-59.16,56.11-62.56,31.55,3.4,56.11,30.12,56.11,62.56v53.91h-26.09v-68.03c0-10.25-8.31-18.56-18.56-18.56h-4.98c-10.24,0-18.55,8.31-18.55,18.56v14.17l-9.92,9.6-7.84,7.58-7.85,7.59Z"/>
        <polygon class="cls-5" points="146.27 90.97 146.27 144.83 89.37 144.83 95.92 138.5 103.76 130.92 111.61 123.33 119.43 115.75 119.45 115.75 127.29 108.15 135.12 100.57 145.04 90.97 146.27 90.97"/>
        <path class="cls-1" d="m146.27,76.8v14.17h-42.09v-14.17c0-10.25,8.31-18.56,18.55-18.56h4.98c10.25,0,18.56,8.31,18.56,18.56Z"/>
        <polygon class="cls-15" points="145.04 90.97 135.12 100.57 120.36 100.57 130.19 90.97 145.04 90.97"/>
        <polygon class="cls-15" points="135.12 100.57 127.29 108.15 112.6 108.15 120.36 100.57 135.12 100.57"/>
        <polygon class="cls-7" points="130.19 90.97 120.36 100.57 94.26 100.57 104.18 90.97 130.19 90.97"/>
        <polygon class="cls-15" points="127.29 108.15 119.45 115.75 119.43 115.75 104.82 115.75 112.6 108.15 127.29 108.15"/>
        <polygon class="cls-7" points="120.36 100.57 112.6 108.15 86.43 108.15 94.26 100.57 120.36 100.57"/>
        <polygon class="cls-15" points="119.43 115.75 111.61 123.33 97.06 123.33 104.82 115.75 119.43 115.75"/>
        <polygon class="cls-7" points="112.6 108.15 104.82 115.75 78.57 115.75 86.43 108.15 112.6 108.15"/>
        <polygon class="cls-15" points="111.61 123.33 103.76 130.92 89.28 130.92 97.06 123.33 111.61 123.33"/>
        <polygon class="cls-7" points="104.82 115.75 97.06 123.33 70.75 123.33 78.57 115.75 104.82 115.75"/>
        <polygon class="cls-15" points="103.76 130.92 95.92 138.5 81.52 138.5 89.28 130.92 103.76 130.92"/>
        <polygon class="cls-7" points="97.06 123.33 89.28 130.92 62.9 130.92 70.75 123.33 97.06 123.33"/>
        <polygon class="cls-15" points="95.92 138.5 89.37 144.83 75.04 144.83 81.52 138.5 95.92 138.5"/>
        <polygon class="cls-15" points="73.74 146.1 75.04 144.83 89.37 144.83 81.64 152.32 67.36 152.32 73.74 146.1"/>
        <polygon class="cls-7" points="89.28 130.92 81.52 138.5 60.15 138.5 60.15 133.58 62.9 130.92 89.28 130.92"/>
        <polygon class="cls-7" points="81.52 138.5 75.04 144.83 60.15 144.83 60.15 138.5 81.52 138.5"/>
        <polygon class="cls-7" points="75.04 144.83 73.74 146.1 47.22 146.1 48.52 144.83 60.15 144.83 75.04 144.83"/>
        <polygon class="cls-7" points="73.74 146.1 67.36 152.32 40.78 152.32 47.21 146.1 47.22 146.1 73.74 146.1"/>
        <polygon class="cls-7" points="60.15 138.5 60.15 144.83 48.52 144.83 51.31 142.13 55.06 138.5 60.15 138.5"/>
        <polygon class="cls-7" points="60.15 133.58 60.15 138.5 55.06 138.5 60.15 133.58"/>
      </g>
      <path class="cls-3" d="m281.14,27.91c35.98-1.01,64.19,29.81,62.6,65.42-.47,17.17-.63,34.72-2.51,51.67-.47-13.17,0-43.47-.31-56.33-.92-18.61-10.01-36.9-25.14-47.97-9.99-7.42-22.22-11.77-34.65-12.47-.08,0-.15-.08-.14-.16,0-.08.08-.15.16-.14h0Z"/>
      <path class="cls-3" d="m123.08,27.84c14.11-2.07,28.87-2.46,43.11-2.58,14.42.12,28.78.51,43.11,2.58.09,0,.16.08.15.17.06.38-43.16.15-43.26.28,0,0-43.11-.15-43.11-.15-.08,0-.15-.07-.15-.15,0-.09.07-.15.15-.15h0Z"/>
      <path class="cls-17" d="m242.82,1.52h5.17c18.74,0,33.96,15.22,33.96,33.96v23.02h-73.09v-23.02c0-18.74,15.22-33.96,33.96-33.96Z"/>
      <path class="cls-16" d="m211.46,132.83l-7.71-32.62c-.5-2.12,1.1-4.14,3.28-4.14h26.01c2.17,0,3.78,2.03,3.28,4.14l-7.71,32.62"/>
      <path class="cls-16" d="m256.59,132.78l-7.71-32.62c-.5-2.12,1.1-4.14,3.28-4.14h26.01c2.17,0,3.78,2.03,3.28,4.14l-7.71,32.62"/>
      <path class="cls-16" d="m301.71,132.74l-7.71-32.62c-.5-2.12,1.1-4.14,3.28-4.14h26.01c2.17,0,3.78,2.03,3.28,4.14l-7.71,32.62"/>
      <path class="cls-3" d="m341.24,132.75c-33.91.51-80.22,1.06-114.12,1.46-12.68.17-25.36.03-38.04.06l1.52-1.52s0,12.09,0,12.09l-1.52-1.52h152.16s0,3.04,0,3.04H89.38s0-3.04,0-3.04h99.69l-1.52,1.52c0-6.99,0-40.25,0-46.46-.06-2.69.07-6.62-.05-9.25-.38-18.18-9.48-35.85-23.94-46.87-19.18-15.01-47.14-16.71-68.73-5.99-16.35,8.09-28.73,23.92-32.62,41.81-1.39,6.02-1.56,12.16-1.56,18.34,0,0-.52,37.17-.52,37.17,0,0-.51-37.17-.51-37.17-.38-9.34.37-18.86,3.65-27.71,7.36-20.86,26.26-37.32,48.16-41.2,4.62-.9,9.46-1.06,14.15-1.04,27.25-.57,53.25,17.97,61.64,43.9,2.03,6.01,3.15,12.33,3.32,18.67.13,2.75,0,6.57.05,9.34,0,6.06,0,39.68,0,46.46,0,.84-.68,1.52-1.52,1.52h-99.69v-3.04h251.86s0,3.04,0,3.04h-152.16c-.84,0-1.52-.68-1.52-1.52v-12.09c0-.84.68-1.52,1.51-1.52,12.68.03,25.36-.11,38.05.06,33.87.4,80.25.95,114.12,1.46h0Z"/>
      <polyline class="cls-18" points="87.51 146.1 95.92 138.51 54.99 138.51 62.76 130.92 103.76 130.92 111.61 123.33 70.53 123.33 78.3 115.74 119.45 115.74 127.29 108.16 86.07 108.16 93.84 100.57 135.13 100.57 145.04 90.97 81.65 152.32 40.78 152.32 104.18 90.97"/>
      <line class="cls-18" x1="47.22" y1="146.1" x2="87.51" y2="146.1"/>
    </g>
  </g>
</svg>