<?xml version="1.0" encoding="UTF-8"?>
<svg id="Capa_2" data-name="Capa 2" xmlns="http://www.w3.org/2000/svg" viewBox="0 0 201.59 197.83">
  <defs>
    <style>
      .cls-1 {
        fill: #9fc1d6;
      }

      .cls-1, .cls-2, .cls-3, .cls-4, .cls-5, .cls-6, .cls-7, .cls-8, .cls-9, .cls-10, .cls-11 {
        stroke-width: 0px;
      }

      .cls-2 {
        fill: #7d9faf;
      }

      .cls-3 {
        fill: #324654;
      }

      .cls-4 {
        fill: #4d616b;
      }

      .cls-5 {
        fill: #273847;
      }

      .cls-6 {
        fill: #425870;
      }

      .cls-7 {
        fill: #88a5ba;
      }

      .cls-8 {
        fill: #fff;
      }

      .cls-12 {
        fill: none;
        stroke: #fff;
        stroke-linecap: round;
        stroke-linejoin: round;
        stroke-width: 1.2px;
      }

      .cls-9 {
        fill: #121d23;
      }

      .cls-10 {
        fill: #2b3a3f;
      }

      .cls-11 {
        fill: #21313a;
      }
    </style>
  </defs>
  <g id="Capa_2-2" data-name="Capa 2">
    <g>
      <g>
        <path class="cls-5" d="m200.71,116.34c.48,20.4.77,48.01,0,81.09h-12.82c.77-33.07.48-60.69,0-81.09-.93-39.35-2.57-50.74-7.3-63.24-8.34-22.03-22.51-37.5-34.12-47.5,2.25-1.94,4.41-3.67,6.4-5.2,12.29,9.42,30.59,26.38,40.54,52.7,4.73,12.5,6.37,23.89,7.3,63.24Z"/>
        <path class="cls-9" d="m187.89,116.34c.48,20.4.77,48.01,0,81.09h-82.85c-.77-33.07-.48-60.69,0-81.09.93-39.35,2.57-50.74,7.3-63.24,8.33-22.05,22.51-37.52,34.13-47.5,11.6,10,25.77,25.47,34.12,47.5,4.73,12.5,6.37,23.89,7.3,63.24Z"/>
        <path class="cls-6" d="m144.11.4h8.76c-1.99,1.52-4.16,3.26-6.4,5.2-1.51-1.3-2.98-2.5-4.38-3.63.69-.55,1.36-1.08,2.02-1.57Z"/>
        <path class="cls-2" d="m140.05.4h4.06c-.66.5-1.33,1.03-2.02,1.57-.71-.55-1.38-1.08-2.04-1.57Z"/>
        <path class="cls-6" d="m142.09,1.97c1.4,1.12,2.87,2.33,4.38,3.63-11.62,9.98-25.8,25.45-34.13,47.5-4.73,12.5-6.37,23.89-7.3,63.24-.48,20.4-.77,48.01,0,81.09h-8.76c-.77-33.07-.48-60.69,0-81.09.93-39.35,2.57-50.74,7.3-63.24,9.44-24.92,26.32-41.45,38.51-51.13Z"/>
        <path class="cls-2" d="m140.05.4c.66.5,1.33,1.03,2.04,1.57-12.2,9.68-29.08,26.21-38.51,51.13-4.73,12.5-6.37,23.89-7.3,63.24-.48,20.4-.77,48.01,0,81.09h-4.06c-.77-33.07-.48-60.69,0-81.09.93-39.35,2.57-50.74,7.29-63.24C109.46,26.78,127.76,9.82,140.05.4Z"/>
        <path class="cls-2" d="m106.72.4h33.33c-12.29,9.42-30.59,26.38-40.55,52.7-4.72,12.5-6.35,23.89-7.29,63.24-.48,20.4-.77,48.01,0,81.09h-25.45v-31.93c0-4.8-3.67-8.73-8.36-9.16,0-11.63.13-22.18.3-31.5h19.67c2.31,0,4.19-1.88,4.19-4.19v-28.13c0-2.31-1.88-4.19-4.19-4.19h-18.44c1.04-17.31,2.74-25.64,5.83-34.1h16.98c.75,0,1.44-.39,1.83-1.03l8.76-14.78,7.48-12.61c.85-1.41-.18-3.19-1.81-3.19h-15.24c7.9-9.8,16.3-17.11,22.96-22.21Z"/>
        <path class="cls-1" d="m61.53.4h45.19c-6.66,5.1-15.07,12.4-22.96,22.21h-31.08c-.75,0-1.44.39-1.83,1.04l-8.76,14.76-7.48,12.61c-.83,1.41.18,3.19,1.81,3.19h29.35c-3.08,8.46-4.78,16.79-5.83,34.1h-31.21c-2.29,0-4.17,1.88-4.17,4.19v28.13c0,2.31,1.88,4.19,4.17,4.19h29.98c-.18,9.32-.3,19.87-.3,31.5-.29-.03-.58-.05-.87-.05h-10.94c-.64,0-1.25.06-1.85.19h-.03c-.59-.13-1.22-.19-1.86-.19h-10.94c-5.09,0-9.21,4.12-9.21,9.21v31.93h-9c-.77-33.07-.48-60.69,0-81.09.93-39.35,2.58-50.74,7.3-63.24C30.96,26.78,49.24,9.82,61.53.4Z"/>
        <path class="cls-10" d="m99,22.61c1.64,0,2.66,1.78,1.81,3.19l-7.48,12.61h-18.97l9.32-15.73s.05-.06.06-.08h15.24Z"/>
        <path class="cls-10" d="m93.34,38.41l-8.76,14.78c-.39.64-1.08,1.03-1.83,1.03h-16.98c.14-.37.27-.75.42-1.12.35-.91.71-1.83,1.09-2.73l7.09-11.96h18.97Z"/>
        <path class="cls-4" d="m83.74,22.61l-.05.08c-3.74,4.67-7.38,9.9-10.64,15.73h-19.26l9.37-15.81h20.57Z"/>
        <path class="cls-4" d="m83.69,22.69l-9.32,15.73h-1.32c3.26-5.83,6.9-11.06,10.64-15.73Z"/>
        <path class="cls-10" d="m82.57,106.58v14.06c0,2.31-1.88,4.19-4.19,4.19h-19.67c.05-2.95.11-5.79.18-8.49.08-3.47.18-6.71.27-9.76h23.41Z"/>
        <path class="cls-10" d="m82.57,92.51v14.07h-23.41c.21-7.06.47-13.06.79-18.26h18.44c2.31,0,4.19,1.88,4.19,4.19Z"/>
        <path class="cls-4" d="m74.37,38.41l-7.09,11.96c1.72-4.24,3.67-8.22,5.78-11.96h1.32Z"/>
        <path class="cls-4" d="m53.8,38.41h19.26c-2.1,3.74-4.06,7.72-5.78,11.96l-2.29,3.85h-20.57l9.39-15.81Z"/>
        <path class="cls-4" d="m64.98,54.22l2.29-3.85c-.39.9-.74,1.81-1.09,2.73-.14.37-.27.75-.42,1.12h-.79Z"/>
        <path class="cls-11" d="m66.76,165.49v31.93h-7.88c-.35-14.86-.48-28.6-.48-41.1,4.69.43,8.36,4.36,8.36,9.16Z"/>
        <path class="cls-4" d="m63.17,22.61l-9.37,15.81h-11.71l8.76-14.76c.39-.66,1.08-1.04,1.83-1.04h10.49Z"/>
        <path class="cls-6" d="m53.8.4h7.73c-12.29,9.42-30.57,26.38-40.54,52.7-4.72,12.5-6.37,23.89-7.3,63.24-.48,20.4-.77,48.01,0,81.09h-7.73c-.77-33.07-.5-60.69,0-81.09.93-39.35,2.57-50.74,7.29-63.24C23.21,26.78,41.49,9.82,53.8.4Z"/>
        <path class="cls-4" d="m58.66,88.32h1.28c-.32,5.2-.58,11.2-.79,18.26h-.5v-18.26Z"/>
        <path class="cls-4" d="m58.66,106.58h.5c-.1,3.05-.19,6.29-.27,9.76-.06,2.7-.13,5.54-.18,8.49h-.05v-18.25Z"/>
        <path class="cls-11" d="m58.88,197.43h-6.82v-31.93c0-4.45-3.15-8.15-7.32-9.02.59-.13,1.2-.19,1.85-.19h10.94c.29,0,.58.02.87.05,0,12.5.13,26.24.48,41.1Z"/>
        <rect class="cls-4" x="37.38" y="106.58" width="21.28" height="18.25"/>
        <rect class="cls-4" x="37.38" y="88.32" width="21.28" height="18.26"/>
        <path class="cls-7" d="m48.71.4h5.09c-12.31,9.42-30.59,26.38-40.55,52.7-4.72,12.5-6.35,23.89-7.29,63.24-.5,20.4-.77,48.01,0,81.09H.87c-.77-33.07-.48-60.69,0-81.09.93-39.35,2.57-50.74,7.3-63.24C18.14,26.78,36.42,9.82,48.71.4Z"/>
        <path class="cls-4" d="m53.8,38.41l-9.39,15.81h-7.99c-1.64,0-2.65-1.78-1.81-3.19l7.48-12.61h11.71Z"/>
        <path class="cls-3" d="m52.06,165.49v31.93h-14.68v-31.93c0-4.45,3.15-8.15,7.33-9.02h.03c4.17.87,7.32,4.57,7.32,9.02Z"/>
        <path class="cls-1" d="m42.85,156.28c.64,0,1.27.06,1.86.19-4.19.87-7.33,4.57-7.33,9.02v31.93h-14.68v-31.93c0-5.09,4.12-9.21,9.21-9.21h10.94Z"/>
        <path class="cls-4" d="m37.38,106.58v18.25h-8.65c-2.29,0-4.17-1.88-4.17-4.19v-14.06h12.82Z"/>
        <path class="cls-4" d="m37.38,88.32v18.26h-12.82v-14.07c0-2.31,1.88-4.19,4.17-4.19h8.65Z"/>
      </g>
      <path class="cls-8" d="m37.44,88.33c1.4,12.06,1.39,24.44,0,36.5,0,.07-.12.08-.12,0,.06-8.98-.29-27.91.12-36.5h0Z"/>
      <path class="cls-8" d="m58.73,88.33c1.4,12.06,1.39,24.44,0,36.5,0,.07-.12.08-.12,0,.06-8.98-.29-27.91.12-36.5h0Z"/>
      <path class="cls-8" d="m24.56,106.52c16.8-1.29,33.93-1.2,50.76-.5,2.42.17,4.84.27,7.26.5.07,0,.07.12,0,.12-14.34-.06-44.06.29-58.01-.12h0Z"/>
      <path class="cls-8" d="m63.22,22.64c-4.99,11.16-11.37,21.88-18.76,31.62-.04.06-.15,0-.1-.06,4.67-7.74,14.09-24.32,18.86-31.56h0Z"/>
      <path class="cls-8" d="m83.8,22.64c-4.99,11.16-11.37,21.88-18.76,31.62-.04.06-.15,0-.1-.06,4.67-7.74,14.09-24.32,18.86-31.56h0Z"/>
      <path class="cls-8" d="m42.08,38.36c16.98-1.38,34.28-1.37,51.26,0,.07,0,.08.12,0,.12-12.65-.06-38.99.29-51.26-.12h0Z"/>
      <rect class="cls-12" x="24.56" y="88.33" width="58.01" height="36.5" rx="4.18" ry="4.18"/>
      <path class="cls-12" d="m84.57,53.19l16.25-27.38c.84-1.41-.18-3.2-1.82-3.2h-46.33c-.75,0-1.44.39-1.82,1.04l-16.25,27.38c-.84,1.41.18,3.2,1.82,3.2h46.33c.75,0,1.44-.39,1.82-1.04Z"/>
    </g>
  </g>
</svg>