<?xml version="1.0" encoding="UTF-8"?>
<svg id="Capa_2" data-name="Capa 2" xmlns="http://www.w3.org/2000/svg" viewBox="0 0 371.17 336.44">
  <defs>
    <style>
      .cls-1 {
        fill: #8c2a2a;
      }

      .cls-1, .cls-2, .cls-3, .cls-4, .cls-5, .cls-6, .cls-7, .cls-8, .cls-9 {
        stroke-width: 0px;
      }

      .cls-3 {
        fill: #260909;
      }

      .cls-4 {
        fill: #c64040;
      }

      .cls-5 {
        fill: #1b373f;
      }

      .cls-6 {
        fill: #ed7070;
      }

      .cls-7 {
        fill: #8ddae2;
      }

      .cls-8 {
        fill: #992e2e;
      }

      .cls-9 {
        fill: #61959e;
      }
    </style>
  </defs>
  <g id="Capa_2-2" data-name="Capa 2">
    <g>
      <g>
        <path class="cls-8" d="m326.53,78.63c.86,1.22,1.84,2.64,2.95,4.23-7.79.89-15.71,1.87-23.75,2.96-6.04-6.24-11.76-12.14-17.13-17.63l.09-.02,16.26-18.36c11.67,14.54,21.58,28.82,21.58,28.82Z"/>
        <path class="cls-4" d="m317.47,146.51v10.55l-9.05,2.07v-8.49c.39-.05.75-.12,1.09-.2,3.15-.76,5.65-2.89,7.96-3.93Z"/>
        <path class="cls-4" d="m317.47,93.32v53.18c-2.31,1.05-4.81,3.17-7.96,3.93-.34.08-.7.16-1.09.2v-55.79c2.96-.5,5.98-1.01,9.05-1.53Z"/>
        <path class="cls-1" d="m308.42,150.64v8.49l-17.99,4.12-.16-.66v-18.55h2.36c7.3,6.08,12.36,7.07,15.79,6.6Z"/>
        <path class="cls-1" d="m308.42,94.85v55.79c-3.43.47-8.49-.51-15.79-6.6h-2.36v-46.1c5.79-1,11.84-2.03,18.14-3.09Z"/>
        <path class="cls-8" d="m304.96,49.81l-16.26,18.36-2.73-2.9-11.54-12.28-10.11-10.73-3.15-3.34-1.4.2c-6.29-6.19-10.75-10.42-12.9-12.23-1.03-.86-3.31-2.75-6.77-4.4-3.43-1.64-6.68-2.42-9.3-2.79,4.71-.42,9.42-.83,14.13-1.25,4.99-.45,10-.89,15.01-1.31,2.09-.08,5.13,0,8.67.78,0,0,3.29.73,6.47,2.12,7.35,3.21,19.33,16.6,29.88,29.77Z"/>
        <path class="cls-4" d="m290.28,162.59l.16.66-18.28,4.18v-66.32c5.73-1.01,11.76-2.06,18.13-3.15v64.64Z"/>
        <path class="cls-4" d="m267.17,72.01l21.44-3.82c5.37,5.49,11.09,11.39,17.13,17.63-10.72,1.44-21.64,3.06-32.76,4.88-27.4,4.48-53.33,9.69-77.68,15.35-10.3-12.45-23.78-26.72-41-40.83-13.87-11.37-27.29-20.27-39.21-27.19-2.01-1.14-2.26-2.07-1.59-2.84,1.5-1.68,7.54-2.5,8.91-2.73,6.21-1.06,12.42-2.04,18.66-2.95,20.16-2.93,40.39-5.16,60.67-7.13l-25.37,28.66,14.82,15.74,15.13,16.07,32.36-5.77,28.49-5.07Z"/>
        <path class="cls-5" d="m285.97,65.27l2.73,2.9-.12-.02c-.94-.97-1.87-1.92-2.79-2.86l.19-.03Z"/>
        <path class="cls-5" d="m288.7,68.17l-.09.02s-.02-.02-.03-.03l.12.02Z"/>
        <path class="cls-7" d="m288.57,68.16s.03.02.03.03l-21.44,3.82-2.75-2.92,14.01-2.48,10.14,1.54Z"/>
        <path class="cls-7" d="m288.57,68.16l-10.14-1.54.76-.14,6.58-1.17c.92.94,1.86,1.89,2.79,2.86Z"/>
        <path class="cls-9" d="m285.97,65.27l-.19.03c-2.87-2.93-5.62-5.73-8.24-8.38-1.28-1.31-2.54-2.57-3.78-3.81l.64-.11.02-.02,11.54,12.28Z"/>
        <path class="cls-9" d="m285.78,65.3l-6.58,1.17-.36-2.03-4.34-4.74,3.04-2.78c2.62,2.65,5.37,5.44,8.24,8.38Z"/>
        <path class="cls-9" d="m274.5,59.7l4.34,4.74.36,2.03-.76.14-19.1-2.92-6.69-7.11,21.12-3.46c1.23,1.23,2.5,2.5,3.78,3.81l-3.04,2.78Z"/>
        <polygon class="cls-9" points="278.43 66.61 264.42 69.09 259.34 63.7 278.43 66.61"/>
        <path class="cls-9" d="m274.42,52.99l-.02.02-.64.11c-3.88-3.93-7.46-7.52-10.66-10.69l1.2-.17,10.11,10.73Z"/>
        <path class="cls-9" d="m273.77,53.12l-21.12,3.46-10.45-11.09,20.92-3.06c3.2,3.17,6.77,6.76,10.66,10.69Z"/>
        <path class="cls-1" d="m272.15,101.11v66.32l-16.69,3.82-.2-.9v-66.18c5.27-.98,10.91-2,16.9-3.06Z"/>
        <polygon class="cls-7" points="264.42 69.09 267.17 72.01 238.68 77.08 235.92 74.15 264.42 69.09"/>
        <polygon class="cls-9" points="251.52 62.51 259.34 63.7 264.42 69.09 235.92 74.15 223.83 61.31 233.41 59.73 251.52 62.51"/>
        <path class="cls-7" d="m264.31,42.26l-1.2.17c-1.17-1.17-2.29-2.26-3.35-3.31l1.4-.2,3.15,3.34Z"/>
        <path class="cls-7" d="m263.11,42.43l-20.92,3.06-3.2-3.4,20.77-2.96c1.06,1.05,2.18,2.14,3.35,3.31Z"/>
        <path class="cls-4" d="m238.99,42.09l-29.21,4.18-33.42,4.77,25.37-28.66c9.67-.94,19.36-1.83,29.05-2.68,2.62.37,5.87,1.15,9.3,2.79,3.46,1.65,5.74,3.54,6.77,4.4,2.15,1.81,6.61,6.04,12.9,12.23l-20.77,2.96Z"/>
        <polygon class="cls-9" points="251.52 62.51 233.41 59.73 252.64 56.58 259.34 63.7 251.52 62.51"/>
        <path class="cls-4" d="m255.45,171.25l-17.85,4.09-.12-.56v-67.26c5.35-1.05,11.28-2.17,17.77-3.35v66.18l.2.9Z"/>
        <polygon class="cls-9" points="252.64 56.58 233.41 59.73 220.51 57.77 212.96 49.75 242.19 45.49 252.64 56.58"/>
        <polygon class="cls-7" points="238.99 42.09 242.19 45.49 212.96 49.75 209.8 46.41 209.79 46.27 238.99 42.09"/>
        <polygon class="cls-7" points="235.92 74.15 238.68 77.08 206.32 82.86 191.19 66.79 191.35 66.65 197.48 65.63 210.49 78.66 235.92 74.15"/>
        <path class="cls-1" d="m237.61,175.34l-16.21,3.73-.19-.81v-67.38c4.59-1.01,10.03-2.12,16.27-3.35v67.26l.12.56Z"/>
        <polygon class="cls-9" points="223.83 61.31 235.92 74.15 210.49 78.66 197.48 65.63 223.83 61.31"/>
        <polygon class="cls-9" points="233.41 59.73 223.83 61.31 220.51 57.77 233.41 59.73"/>
        <polygon class="cls-9" points="211.64 56.43 220.51 57.77 223.83 61.31 197.48 65.63 185.59 53.74 189.93 53.1 211.64 56.43"/>
        <path class="cls-4" d="m221.21,178.26l.19.81-17.69,4.04v-67.43c1-.33,1.78-.62,2.23-.8,2.79-1.05,7.96-2.39,15.27-4.01v67.38Z"/>
        <polygon class="cls-9" points="211.64 56.43 189.93 53.1 212.96 49.75 220.51 57.77 211.64 56.43"/>
        <polygon class="cls-7" points="212.96 49.75 189.93 53.1 176.37 51.04 209.79 46.27 209.8 46.41 212.96 49.75"/>
        <path class="cls-1" d="m203.7,115.68v67.43l-15.3,3.51v-76.85c.3,1.64,1.01,3.98,2.95,5.51,3.49,2.79,9.08,1.5,12.36.41Z"/>
        <polygon class="cls-7" points="197.48 65.63 191.35 66.65 191.19 66.79 176.37 51.04 189.93 53.1 185.59 53.74 197.48 65.63"/>
        <path class="cls-4" d="m188.4,109.77v76.85h-7.43v-85.15c2.61,2.82,5.09,5.59,7.43,8.3Z"/>
        <path class="cls-1" d="m180.97,101.47v85.15h-12.09v-97.52c4.31,4.18,8.33,8.33,12.09,12.37Z"/>
        <path class="cls-4" d="m168.88,89.1v97.52h-12.42v-109.02c4.38,3.84,8.52,7.68,12.42,11.5Z"/>
        <path class="cls-6" d="m156.46,141.2v45.42l-32.83-22.7c10.95-7.57,21.89-15.13,32.83-22.72Z"/>
        <path class="cls-1" d="m156.46,77.6v54.64h-13.45v-65.59l.14-.19c1.28,1.01,2.56,2.04,3.85,3.1,3.28,2.67,6.41,5.35,9.45,8.02v.02Z"/>
        <polygon class="cls-6" points="156.46 132.23 117.15 159.43 77.83 132.23 90.92 132.23 103.73 132.23 115.09 132.23 128.54 132.23 143.01 132.23 156.46 132.23"/>
        <path class="cls-4" d="m143.16,66.46l-.14.19v65.59h-14.48v-22.47c4.32,0,7.83-3.51,7.83-7.83v-15.98c0-4.32-3.51-7.83-7.83-7.83v-22.17l.2-.28c4.71,3.32,9.53,6.91,14.42,10.78Z"/>
        <path class="cls-6" d="m142.59,186.62h-51.78c8.63-5.96,17.26-11.93,25.88-17.91,8.63,5.98,17.27,11.93,25.9,17.91Z"/>
        <path class="cls-3" d="m103.73,108.78c-2.4-1.34-4.03-3.92-4.03-6.85v-15.98c0-2.96,1.65-5.55,4.1-6.9,1.11-.59,2.37-.94,3.73-.94h21c4.32,0,7.83,3.51,7.83,7.83v15.98c0,4.32-3.51,7.83-7.83,7.83h-21c-1.39,0-2.68-.36-3.81-.98Z"/>
        <path class="cls-1" d="m128.74,55.68l-.2.28v22.17h-13.45v-31.62c4.42,2.81,8.99,5.87,13.65,9.17Z"/>
        <rect class="cls-1" x="115.09" y="109.77" width="13.45" height="22.47"/>
        <path class="cls-4" d="m115.09,109.77v22.47h-11.36v-23.45c1.12.62,2.42.98,3.81.98h7.55Z"/>
        <path class="cls-4" d="m115.09,46.5v31.62h-7.55c-1.36,0-2.62.34-3.73.94l-.08-.94v-22.17l-.3-.36c3.99-3.31,7.88-6.32,11.65-9.1Z"/>
        <path class="cls-6" d="m110.21,164.22l-32.37,22.4v-44.79c10.8,7.46,21.58,14.93,32.37,22.39Z"/>
        <path class="cls-1" d="m103.73,78.13l.08.94c-2.45,1.34-4.1,3.93-4.1,6.9v15.98c0,2.93,1.62,5.51,4.03,6.85v23.45h-12.81v-65.59c4.23-3.99,8.41-7.66,12.51-11.05l.3.36v22.17Z"/>
        <path class="cls-4" d="m90.92,66.65v65.59h-13.09v-52.34c3.32-3.62,6.86-7.27,10.64-10.92.81-.8,1.64-1.56,2.45-2.32Z"/>
        <path class="cls-1" d="m77.83,141.83v44.79h-12.01v-92.67c3.64-4.59,7.63-9.3,12.01-14.06v61.94Z"/>
        <path class="cls-4" d="m54.18,162.02v-52.25c3.4-5.02,7.27-10.33,11.64-15.82v92.67h-11.64v-24.6Z"/>
      </g>
      <path class="cls-2" d="m259.92,16.98c5.34-.29,10.73.69,15.65,2.82,4.89,2.35,8.79,6.13,12.66,9.82,7.57,7.5,14.43,15.65,21.11,23.92,7.05,8.81,13.93,17.82,20.41,27.01,0,0,.58.82.58.82.2.3.37.49.6.88,2.44,3.6.88,8.97-3.11,10.75-.68.33-1.58.55-2.32.67-25.97,4.55-52.38,9.24-78.18,14.31-13.5,2.84-27.18,5.02-40.3,9.15-5.04,1.9-10.86,3.64-16.04.93-2.85-1.55-4.59-4.83-5.08-7.84,0,0,.58,1.2.58,1.2-21.11-24.24-45.75-45.4-72.9-62.56,0,0,3.17-.11,3.17-.11-17.61,12.89-33.58,28.03-47.36,44.95-4.59,5.64-8.96,11.48-13.06,17.49,0,0,.44-1.45.44-1.45v5.52c0,1.17-.79,2.16-1.86,2.46-7.62,2.4-12.34-3.71-10.91-11.06.46-2.7,1.62-5.15,3.11-7.4,6.41-10.13,13.6-19.76,21.55-28.72,12.73-14.31,27.44-26.87,43.48-37.31,0,0-.78,2.26-.78,2.24-.34-1.03.22-2.14,1.25-2.47,12.18-3.76,24.77-5.13,37.18-6.27,35.63-3.24,76.01-7.55,111.69-9.8.2-.02.22.3.03.31-12.4,1.14-24.82,2.2-37.21,3.4-21.95,2.43-52.67,5.74-74.32,7.93-12.37,1.24-24.82,2.71-36.69,6.49,0,0,.14-.3.14-.28-23.38,15.98-44.36,36.21-60.11,59.98-2.45,3.95-5.73,7.68-6.58,12.36-.93,5.16,1.58,9.74,7.38,7.87,0,0-.2.26-.2.26,0,0,0-5.52,0-5.52,16.4-24.48,37.26-46.02,60.98-63.51,27.58,16.85,52.52,38.99,73.76,63.46,1.03,6.28,6.06,7.83,11.76,6.58,15.12-4.95,30.81-7.88,46.43-10.82,25.88-4.85,52.35-9.31,78.35-13.64,2.6-.26,4.81-2.36,5.08-4.98.41-2.75-1.69-4.8-3.08-6.93-12.24-17.28-24.86-34.43-39.57-49.7-3.75-3.67-7.59-7.49-12.31-9.87-4.8-2.18-10.11-3.25-15.39-3.06-.2,0-.21-.3-.01-.31h0Z"/>
      <path class="cls-2" d="m212.95,49.76c8.42,7.39,16.14,15.57,23,24.43-8.43-7.38-16.13-15.57-23-24.43h0Z"/>
      <path class="cls-2" d="m242.2,45.49c8.24,7.19,15.78,15.18,22.45,23.85-8.25-7.19-15.77-15.19-22.45-23.85h0Z"/>
      <path class="cls-2" d="m197.48,65.64c25.36-5.24,51.23-9.5,76.94-12.64-25.36,5.25-51.23,9.49-76.94,12.64h0Z"/>
      <path class="cls-7" d="m208.1,53.99c1.38,1.51,2.76,3.02,4.14,4.53.2.21.39.43.59.64.35.38,1.03.38,1.38,0,.37-.4.37-.98,0-1.38-1.38-1.51-2.76-3.02-4.14-4.53-.2-.21-.39-.43-.59-.64-.35-.38-1.03-.38-1.38,0-.37.4-.37.98,0,1.38h0Z"/>
      <path class="cls-7" d="m221.55,67.44c1.38,1.51,2.76,3.02,4.14,4.53.2.21.39.43.59.64.35.38,1.03.38,1.38,0,.37-.4.37-.98,0-1.38-1.38-1.51-2.76-3.02-4.14-4.53-.2-.21-.39-.43-.59-.64-.35-.38-1.03-.38-1.38,0-.37.4-.37.98,0,1.38h0Z"/>
      <path class="cls-7" d="m236.8,49.1c1.38,1.51,2.76,3.02,4.14,4.53.2.21.39.43.59.64.35.38,1.03.38,1.38,0,.37-.4.37-.98,0-1.38-1.38-1.51-2.76-3.02-4.14-4.53-.2-.21-.39-.43-.59-.64-.35-.38-1.03-.38-1.38,0-.37.4-.37.98,0,1.38h0Z"/>
      <path class="cls-7" d="m250.24,62.55c1.38,1.51,2.76,3.02,4.14,4.53.2.21.39.43.59.64.35.38,1.03.38,1.38,0,.37-.4.37-.98,0-1.38-1.38-1.51-2.76-3.02-4.14-4.53-.2-.21-.39-.43-.59-.64-.35-.38-1.03-.38-1.38,0-.37.4-.37.98,0,1.38h0Z"/>
      <path class="cls-7" d="m259.98,46.52c1.38,1.51,2.76,3.02,4.14,4.53.2.21.39.43.59.64.35.38,1.03.38,1.38,0,.37-.4.37-.98,0-1.38-1.38-1.51-2.76-3.02-4.14-4.53-.2-.21-.39-.43-.59-.64-.35-.38-1.03-.38-1.38,0-.37.4-.37.98,0,1.38h0Z"/>
      <path class="cls-7" d="m273.43,59.97c1.38,1.51,2.76,3.02,4.14,4.53.2.21.39.43.59.64.35.38,1.03.38,1.38,0,.37-.4.37-.98,0-1.38-1.38-1.51-2.76-3.02-4.14-4.53-.2-.21-.39-.43-.59-.64-.35-.38-1.03-.38-1.38,0-.37.4-.37.98,0,1.38h0Z"/>
      <path class="cls-2" d="m285.96,65.27c-23.97,4.71-51.28,9.79-75.35,14.09-.24.04-.48-.04-.64-.2-6.23-6.18-18.74-18.66-24.91-24.9-.43-.4-.17-1.18.41-1.24,0,0,19.69-2.81,19.69-2.81,13.13-1.85,26.27-3.64,39.41-5.39,0,0,19.73-2.55,19.73-2.55l-19.63,3.19c-18.92,3.01-39.93,6.21-58.98,9.01,0,0,.41-1.24.41-1.24l12.48,12.42,12.42,12.49-.64-.2s18.88-3.29,18.88-3.29c17.59-3,39.1-6.6,56.72-9.38h0Z"/>
    </g>
  </g>
</svg>