<?xml version="1.0" encoding="UTF-8"?>
<svg id="Capa_2" data-name="Capa 2" xmlns="http://www.w3.org/2000/svg" viewBox="0 0 301.7 213.61">
  <defs>
    <style>
      .cls-1 {
        fill: #3a1414;
      }

      .cls-1, .cls-2, .cls-3, .cls-4, .cls-5, .cls-6, .cls-7, .cls-8, .cls-9, .cls-10, .cls-11, .cls-12, .cls-13, .cls-14, .cls-15 {
        stroke-width: 0px;
      }

      .cls-2 {
        fill: #a03030;
      }

      .cls-3 {
        fill: #35321e;
      }

      .cls-4 {
        fill: #457f2d;
      }

      .cls-5 {
        fill: #26491c;
      }

      .cls-6 {
        fill: #c1e237;
      }

      .cls-7 {
        fill: #1e1c10;
      }

      .cls-8 {
        fill: #8e991d;
      }

      .cls-9 {
        fill: #622;
      }

      .cls-10 {
        fill: #3d7230;
      }

      .cls-11 {
        fill: #c94747;
      }

      .cls-12 {
        fill: #b7a96c;
      }

      .cls-13 {
        fill: #5b593d;
      }

      .cls-14 {
        fill: #63ad47;
      }

      .cls-15 {
        fill: #49462d;
      }
    </style>
  </defs>
  <g id="Capa_2-2" data-name="Capa 2">
    <g>
      <path class="cls-7" d="m266.17,203.56v3.14c0,3.61-2.92,6.53-6.53,6.53H28.83c-3.61,0-6.53-2.92-6.53-6.53v-3.14h243.87Z"/>
      <rect class="cls-3" x="22.3" y="197.7" width="243.87" height="5.87"/>
      <rect class="cls-15" x="22.3" y="182.24" width="243.87" height="15.46"/>
      <path class="cls-13" d="m266.17,170.41v11.82H22.3v-11.82c0-3.59,2.92-6.53,6.53-6.53h230.82c3.61,0,6.53,2.93,6.53,6.53Z"/>
      <path class="cls-2" d="m255.02,72c3.02,0,5.48,2.45,5.48,5.49s-2.45,5.48-5.48,5.48-5.49-2.45-5.49-5.48,2.45-5.49,5.49-5.49Z"/>
      <path class="cls-11" d="m253.39,69.22c4.12,0,7.45,3.34,7.45,7.45s-3.34,7.45-7.45,7.45-7.45-3.34-7.45-7.45c0-1.24.3-2.41.84-3.43.12-.04.21-.06.3-.09-.04,0-.13,0-.25.01,1.24-2.35,3.73-3.95,6.57-3.95Zm7.11,8.28c0-3.04-2.45-5.49-5.48-5.49s-5.49,2.45-5.49,5.49,2.45,5.48,5.49,5.48,5.48-2.45,5.48-5.48Z"/>
      <path class="cls-10" d="m246.82,73.17s-.03.04-.04.07c-1.47.45-5.12,1.83-7.83,5.58-2.77,3.83-2.86,7.78-2.84,9.08v75.98h-2.83v-75.98c-.1-1.27-.28-5.18,2.26-8.89,3.64-5.28,9.83-5.81,11.28-5.85Z"/>
      <path class="cls-10" d="m233.28,104.01v6.39c-.24-1.54-1.08-5.61-4.53-9.08-2.16-2.14-4.44-3.19-5.87-3.71,1.18.1,3.07.4,5.1,1.45,3.01,1.54,4.62,3.85,5.3,4.95Z"/>
      <path class="cls-2" d="m227.6,109.94c0,.45-.06.9-.15,1.33-.09-2.19-1.89-3.92-4.09-3.92-.85,0-1.65.25-2.29.69l-.15-.25c1.24-.81,2.2-2.01,2.69-3.43,2.32.79,3.98,2.99,3.98,5.58Z"/>
      <path class="cls-12" d="m227.45,111.27v.16c0,2.14-1.65,3.89-3.74,4.07,1.86-.67,3.29-2.27,3.74-4.24Z"/>
      <path class="cls-9" d="m223.37,107.35c2.2,0,4,1.74,4.09,3.92-.45,1.96-1.89,3.56-3.74,4.24-.1.01-.22.01-.34.01-2.26,0-4.09-1.83-4.09-4.09,0-1.41.72-2.65,1.8-3.4.64-.43,1.44-.69,2.29-.69Z"/>
      <path class="cls-11" d="m224.03,102.08c0,.79-.13,1.57-.4,2.27-.61-.22-1.27-.34-1.96-.34-.51,0-1,.06-1.47.19.03-.19.04-.39.04-.6,0-2.53-2.04-4.56-4.55-4.56s-4.56,2.04-4.56,4.56,2.04,4.55,4.56,4.55c.1,0,.21,0,.31-.01-.07.21-.12.4-.16.61-3.1-.63-5.45-3.38-5.45-6.67,0-3.77,3.05-6.81,6.81-6.81s6.82,3.04,6.82,6.81Z"/>
      <path class="cls-2" d="m223.37,115.52c.12,0,.24,0,.34-.01-.64.25-1.33.37-2.05.37-.09,0-.19,0-.28-.01-.63-1.77-2.32-3.02-4.31-3.02-.19,0-.37.01-.55.04-.51-.87-.79-1.89-.79-2.95,0-.4.04-.79.12-1.18.43.09.9.13,1.36.13,1.38,0,2.66-.4,3.73-1.11l.15.25c-1.08.75-1.8,1.99-1.8,3.4,0,2.26,1.83,4.09,4.09,4.09Z"/>
      <path class="cls-11" d="m223.62,104.36c-.49,1.42-1.45,2.62-2.69,3.43-1.06.7-2.35,1.11-3.73,1.11-.46,0-.93-.04-1.36-.13.04-.21.09-.4.16-.61,2.17-.15,3.92-1.81,4.19-3.94.46-.13.96-.19,1.47-.19.69,0,1.35.12,1.96.34Z"/>
      <path class="cls-9" d="m221.38,115.86c.19.49.28,1.02.28,1.57,0,2.53-2.05,4.58-4.59,4.58-.24,0-.46-.01-.69-.06,1.48-.31,2.59-1.62,2.59-3.19,0-1.8-1.45-3.25-3.25-3.25-1.57,0-2.87,1.11-3.19,2.59-.04-.21-.06-.45-.06-.67,0-2.35,1.77-4.28,4.04-4.55.97,1.71,2.78,2.89,4.86,2.98Z"/>
      <path class="cls-2" d="m217.07,112.84c1.99,0,3.68,1.26,4.31,3.02-2.08-.09-3.89-1.27-4.86-2.98.18-.03.36-.04.55-.04Z"/>
      <path class="cls-2" d="m220.24,103.61c0,.21-.01.4-.04.6-1.99.49-3.58,1.99-4.19,3.94-.1.01-.21.01-.31.01-2.53,0-4.56-2.04-4.56-4.55s2.04-4.56,4.56-4.56,4.55,2.04,4.55,4.56Z"/>
      <path class="cls-2" d="m220.2,104.21c-.27,2.13-2.02,3.79-4.19,3.94.61-1.95,2.2-3.44,4.19-3.94Z"/>
      <path class="cls-1" d="m215.72,115.52c1.8,0,3.25,1.45,3.25,3.25,0,1.57-1.11,2.87-2.59,3.19-1.99-.28-3.56-1.86-3.85-3.85.31-1.48,1.62-2.59,3.19-2.59Z"/>
      <path class="cls-12" d="m216.38,121.95c-.21.03-.43.06-.66.06-1.8,0-3.25-1.45-3.25-3.25,0-.22.03-.45.06-.66.28,1.99,1.86,3.56,3.85,3.85Z"/>
      <path class="cls-8" d="m190.74,116.27c2.01,3.77,2.5,7.87,1.09,11.37-.27.67-.64,1.39-1.09,2.13v-13.5Z"/>
      <path class="cls-10" d="m190.74,129.77v34.12h-2.84v-30.81c1.12-.93,2.1-2.11,2.84-3.31Z"/>
      <path class="cls-8" d="m190.74,116.27v13.5c-.75,1.2-1.72,2.38-2.84,3.31v-7.93c3.02-5.66.33-12.12,0-12.86,1.14,1.26,2.1,2.59,2.84,3.98Z"/>
      <path class="cls-10" d="m190.74,112.29v3.98c-.75-1.39-1.71-2.72-2.84-3.98h2.84Z"/>
      <path class="cls-6" d="m187.9,112.29c.33.73,3.02,7.2,0,12.86v-12.86Z"/>
      <path class="cls-8" d="m187.9,125.14v7.93c-1.5,1.24-3.28,2.02-5.1,1.71-2.04-.34-3.43-1.93-4.15-2.93,3.17-.06,6.85-3.02,8.68-5.76.21-.31.4-.63.57-.94Z"/>
      <path class="cls-6" d="m187.9,112.29v12.86c-.16.31-.36.63-.57.94-1.83,2.74-5.51,5.7-8.68,5.76-.73.01-1.45-.13-2.1-.46-2.17-1.12-2.81-3.94-3.02-5.1,2.04-.91,4.79-2.42,7.57-4.92,3.64-3.28,5.7-6.79,6.79-9.07Z"/>
      <path class="cls-4" d="m150.62,154.4c.31.82.4,1.59.42,2.13-.13-.03-1.71-.31-2.41-1.84-.69-1.5.07-2.86.15-2.98.49.43,1.32,1.32,1.84,2.69Z"/>
      <path class="cls-14" d="m148.63,154.68c.7,1.53,2.27,1.81,2.41,1.84-3.02.31-5.99.15-8.78-.46v-5.09c2.05.54,4.24.81,6.53.73-.07.12-.84,1.48-.15,2.98Z"/>
      <path class="cls-14" d="m142.25,93.85c6.36,4.7,9.2,11.49,7.65,16.73-1.36,4.59-5.81,7.06-7.65,7.95.96-.75,4.68-3.85,5.1-8.8.36-4.24-1.98-7.62-5.1-10.13v-5.75Z"/>
      <path class="cls-14" d="m148.21,79.11c-1.86-1.56-3.91-2.63-5.96-3.19v-2.23c2.26,1.21,4.33,3.05,5.96,5.42Z"/>
      <path class="cls-5" d="m142.25,156.06v7.83h-4.25v-9.11c1.36.55,2.78.99,4.25,1.29Z"/>
      <path class="cls-5" d="m142.25,150.97v5.09c-1.47-.3-2.89-.73-4.25-1.29v-5.43c1.32.67,2.74,1.23,4.25,1.63Z"/>
      <path class="cls-5" d="m142.25,118.53v32.45c-1.51-.4-2.93-.96-4.25-1.63v-52.51c.81.45,1.62.91,2.39,1.42.64.42,1.26.87,1.86,1.35v18.93Z"/>
      <path class="cls-14" d="m142.25,93.85v5.75c-.6-.48-1.21-.93-1.86-1.35-.78-.51-1.59-.97-2.39-1.42v-5.52c1.56.75,2.98,1.6,4.25,2.54Z"/>
      <path class="cls-5" d="m142.25,75.92v17.93c-1.27-.94-2.69-1.8-4.25-2.54v-15.71c1.38-.19,2.81-.06,4.25.33Z"/>
      <path class="cls-14" d="m142.25,73.69v2.23c-1.44-.39-2.87-.52-4.25-.33v-3.4c1.45.25,2.89.76,4.25,1.5Z"/>
      <path class="cls-5" d="m142.25,70.79v2.9c-1.36-.73-2.8-1.24-4.25-1.5v-1.41h4.25Z"/>
      <path class="cls-14" d="m138,149.34v5.43c-4.21-1.69-7.78-4.47-10.22-8.17-.82-1.27-6.38-9.73-2.26-18.44,3.5-7.41,11.34-9.38,12.48-9.64-6.38,3.5-10.46,9.8-10.22,16.16.22,5.91,4.21,11.57,10.22,14.65Z"/>
      <path class="cls-14" d="m138,91.3v5.52c-2.6-1.44-5.31-2.71-7.74-4.44-4.8-3.43-7.12-8.16-5.03-13.84,1.75-4.71,7.45-6.12,7.93-6.24,1.59-.36,3.22-.39,4.83-.1v3.4c-.88.09-1.75.33-2.56.69-.66.28-3.37,1.5-4.25,4.25-1.03,3.22.81,7.33,4.82,9.92.69.27,1.35.55,1.99.85Z"/>
      <path class="cls-2" d="m89.93,108.04c4.31,0,7.8,3.49,7.8,7.8s-3.49,7.8-7.8,7.8c-1.05,0-2.04-.21-2.95-.58.21-.52.31-1.09.31-1.69,0-2.71-2.2-4.91-4.92-4.91-.07,0-.13,0-.21.01-.01-.21-.03-.42-.03-.63,0-4.31,3.49-7.8,7.8-7.8Z"/>
      <path class="cls-10" d="m86.95,108.04c1.02-6-1.93-11.9-7.09-14.47-4.38-2.19-9.77-1.65-13.89,1.36v-4.19c1.08-.67,6.2-3.71,11.63-1.99,6.48,2.07,11,10.15,9.35,19.29Z"/>
      <path class="cls-2" d="m87.3,121.36c0,.6-.1,1.17-.31,1.69-2.66-1.08-4.58-3.59-4.82-6.58.07-.01.13-.01.21-.01,2.72,0,4.92,2.2,4.92,4.91Z"/>
      <path class="cls-9" d="m86.98,123.05c-.67,1.89-2.48,3.23-4.61,3.23-2.72,0-4.92-2.2-4.92-4.92s2.1-4.79,4.71-4.89c.24,2.99,2.16,5.51,4.82,6.58Z"/>
      <path class="cls-10" d="m85.25,66.91c-1.32-.78-4.61-2.42-8.5-1.69-5.55,1.05-10.06,6.51-10.78,13.6v85.07h-5.67v-85.07c.33-8.17,5.76-14.7,12.48-15.88,6.57-1.15,11.73,3.31,12.47,3.97Z"/>
      <path class="cls-10" d="m60.3,104.34v3.7c-.94-5.51-5.31-9.68-10.49-10.21-4.28-.45-8.55,1.65-11.06,5.39,1.5-5.36,6.63-8.83,11.91-8.23,4.82.55,8.81,4.37,9.64,9.35Z"/>
      <path class="cls-14" d="m47.53,108.89c.25.64-2.38,1.48-4.82,4.25-2.51,2.86-2.2,4.8-3.97,5.39-2.39.78-4.24-2.39-5.96-1.71-3.04,1.21-.87,12.62-1.71,12.77-.3.04-1-1.38-2.83-8.52-5.7-10.79-6.08-14.55-4.82-15.59,1.38-1.14,4.27,1.39,6.53,0,3.43-2.11.94-10.52,2.54-11.06.79-.25,2.5,1.45,6.24,8.8.07,1.59.46,3.68,1.99,4.82,2.48,1.84,6.5.01,6.79.85Z"/>
    </g>
  </g>
</svg>