<?xml version="1.0" encoding="UTF-8"?>
<svg id="Capa_2" data-name="Capa 2" xmlns="http://www.w3.org/2000/svg" viewBox="0 0 328.45 385.48">
  <defs>
    <style>
      .cls-1, .cls-2, .cls-3 {
        stroke-width: 0px;
      }

      .cls-2 {
        fill: #b2bfbe;
      }

      .cls-3 {
        fill: #707f7e;
      }
    </style>
  </defs>
  <g id="Capa_2-2" data-name="Capa 2">
    <g>
      <g>
        <path class="cls-2" d="m326.86,132.93c.41.29.21.91-.29.84l-47.38-6.25-.33-.02c.02-.07.02-.15.02-.22,0-.72-.1-1.43-.31-2.1l.31-.12c11.74-.28,23.5-.55,35.24-.83.1,0,.21.03.29.09l12.45,8.61Z"/>
        <path class="cls-3" d="m275.28,133.44l3.2,79.11h-3.72c-.07-.05-.15-.1-.24-.15l-2.72-78.04c1.27,0,2.46-.33,3.48-.91Z"/>
        <path class="cls-2" d="m274.52,212.4v.15h-9.04l.15-3.74c3.2.74,6.2,1.96,8.88,3.58Z"/>
        <path class="cls-2" d="m271.8,134.36l2.72,78.04c-2.69-1.62-5.68-2.84-8.88-3.58l3.01-74.41c.14-.21.28-.4.41-.6.84.36,1.76.55,2.74.55Z"/>
        <path class="cls-2" d="m266.64,73.18l4.48,47.05c-.88.09-1.7.33-2.46.71-2.84-11.17-5.68-22.33-8.54-33.49-.02-.1,0-.21.03-.31l5.6-14.07c.19-.46.84-.4.9.1Z"/>
        <path class="cls-2" d="m268.68,133.63l-.03.77c-6.3,9.38-12.6,18.77-18.9,28.15-.07.09-.15.15-.24.19l-14.22,5.18c-.48.19-.86-.36-.52-.72l32.18-34.78c.52.48,1.1.9,1.74,1.21Z"/>
        <path class="cls-2" d="m246.08,121.08c.5.65-.14,1.5-.86,1.15l-69.09-32.47c.46-1.22.71-2.53.71-3.91v-.05c18.01,5.29,36.04,10.55,54.04,15.81.15.05.29.15.4.29l14.81,19.18Z"/>
        <path class="cls-2" d="m188.45,1.63c.57-.59,1.5-.09,1.26.69l-21.93,72.41c-.74-.14-1.52-.22-2.29-.22-.62,0-1.22.05-1.81.15,2.57-18.4,5.15-36.78,7.71-55.16.03-.17.12-.33.22-.45L188.45,1.63Z"/>
        <path class="cls-3" d="m175.35,202.04l.43,10.52h-7.63l-.69-29.82c2-.52,4.42-.34,7.13.48l.76,18.82Z"/>
        <path class="cls-3" d="m174.51,181.31l.09,1.91c-2.7-.83-5.13-1-7.13-.48l-1.98-85.55c2.01,0,3.91-.53,5.54-1.46l3.48,85.59Z"/>
        <path class="cls-2" d="m167.47,182.74l.69,29.82h-12.38l.52-13.02.09-1.82.33-8.16,3.79-93.54c1.5.76,3.2,1.17,4.99,1.17l1.98,85.55Z"/>
        <path class="cls-2" d="m154.38,88.15c-18.03,3.68-36.05,7.35-54.08,11.04-.15.02-.33,0-.48-.07l-22.05-10.05c-.74-.34-.57-1.38.22-1.41l76.31-3.55c-.09.57-.14,1.15-.14,1.76,0,.79.09,1.55.22,2.29Z"/>
        <path class="cls-2" d="m81.73,66.25c.46-.24.9.26.6.65l-28.12,38.65-.12.17c-.62-.52-1.34-.91-2.13-1.19,5.34-10.42,10.69-20.83,16.05-31.27.05-.09.12-.15.22-.21l13.5-6.82Z"/>
        <path class="cls-2" d="m70.5,148.97l-2.07,14.98c-.07.52-.72.6-.9.12l-14.15-40.36-.26-6.3c.17-.1.34-.21.5-.31,5.51,10.28,11.29,21.28,16.82,31.56.03.09.05.21.05.31Z"/>
        <path class="cls-3" d="m56.31,196.3l.65,16.25h-5.23l-.34-15.81c1.6-.21,3.24-.34,4.92-.45Z"/>
        <path class="cls-3" d="m53.39,123.72l2.93,72.59c-1.69.1-3.32.24-4.92.45l-1.74-78.42c.6,0,1.19-.07,1.76-.22l1.98,5.61Z"/>
        <path class="cls-2" d="m53.39,123.72l-1.98-5.61c.62-.15,1.19-.4,1.72-.69l.26,6.3Z"/>
        <path class="cls-2" d="m51.39,196.75l.34,15.81h-8.83v-5.04l.36-9.11c2.55-.77,5.27-1.31,8.13-1.65Z"/>
        <path class="cls-2" d="m49.65,118.33l1.74,78.42c-2.86.34-5.58.88-8.13,1.65l3.27-80.82c.95.48,2,.74,3.12.74Z"/>
        <path class="cls-2" d="m43,113.68l-.34.14c-10.93-4.29-21.88-8.57-32.82-12.86-.1-.05-.17-.12-.24-.21l-8.14-12.76c-.28-.43.15-.91.6-.65l40.53,23.66c-.02.09-.02.15-.02.24,0,.86.15,1.69.43,2.44Z"/>
      </g>
      <path class="cls-1" d="m155.77,212.56c-.31-38.81,1.26-77.88,4.72-116.54.33,38.81-1.27,77.88-4.72,116.54h0Z"/>
      <path class="cls-1" d="m175.78,212.56c-3.47-38.95-5.08-78.3-4.76-117.4,3.48,38.95,5.06,78.3,4.76,117.4h0Z"/>
      <path class="cls-1" d="m176.82,85.85c.09,10.3-12.54,15.99-20.19,8.85-5.08-4.52-5.09-13.19,0-17.71,7.65-7.15,20.28-1.44,20.19,8.86h0Zm0,0c-.02-9.75-12.05-14.31-18.51-7.18-6.01,6.45-1.67,17.29,7.18,17.83,5.89.57,11.47-4.68,11.34-10.65h0Z"/>
      <path class="cls-1" d="m175.96,89.67c23.34,9.83,46.52,20.42,69.47,31.14.15.08.53.23.25.13-.51-.13-1.02.53-.69.97,0,0-.04-.05-.04-.05l-.77-.99c-1.08-1.41-13.19-17.19-13.84-18.09,0,0-.08-.11-.08-.11.06.07.11.1.21.14,0,0-.26-.08-.26-.08-3.74-1.14-11.7-3.55-15.51-4.74-12.72-3.91-25.39-7.99-38.01-12.23,16.04,3.98,32.33,8.39,48.26,12.86,0,0,4.81,1.35,4.81,1.35.64.24,1.73.35,2.23.83.42.39,1.72,2.15,2.12,2.62,0,0,12.26,15.76,12.26,15.76l.76.99.05.07c1.45,2.07-.87,4.33-2.91,3.03-22.9-10.83-45.84-21.92-68.3-33.61h0Z"/>
      <path class="cls-1" d="m167.54,75.56c6.35-24.52,13.47-48.99,20.76-73.24.06-.16.15-.55.09-.27-.06.53.67.93,1.06.54,0,0-.05.05-.05.05,0,0-.86.9-.86.9-1.24,1.27-15.1,15.54-15.89,16.31,0,0-.1.1-.1.1.06-.07.08-.12.11-.23,0,0-.04.27-.04.27-.59,3.87-1.82,12.09-2.44,16.03-2.02,13.15-4.22,26.27-6.6,39.38,1.61-16.44,3.62-33.21,5.73-49.61,0,0,.64-4.95.64-4.95.14-.67.09-1.76.5-2.33.33-.47,1.88-2.01,2.29-2.47,0,0,13.82-14.41,13.82-14.41l.87-.89.06-.06c1.84-1.74,4.41.23,3.42,2.45-7.4,24.23-15.05,48.53-23.37,72.45h0Z"/>
      <path class="cls-1" d="m154.44,84.1c-25.23,2.2-50.67,3.66-75.97,4.89-.17,0-.57.05-.28,0,.52-.12.65-.94.16-1.17,0,0,.06.03.06.03l1.14.51c1.61.75,19.69,9.05,20.68,9.54,0,0,.12.06.12.06-.09-.03-.14-.04-.25-.02,0,0,.27-.05.27-.05,3.84-.74,12-2.32,15.92-3.05,13.07-2.48,26.18-4.79,39.33-6.92-16.04,3.97-32.51,7.68-48.68,11.16,0,0-4.88,1.05-4.88,1.05-.68.09-1.69.5-2.36.3-.56-.15-2.52-1.1-3.09-1.33,0,0-18.2-8.22-18.2-8.22l-1.13-.52-.08-.04c-2.25-1.16-1.25-4.23,1.16-4.04,25.31-1.12,50.77-2.02,76.1-2.16h0Z"/>
      <path class="cls-1" d="m265.48,212.56c-.57-13.18-.25-26.35.22-39.52.59-13.01,1.34-26.51,2.98-39.41.58,12.98.24,26.51-.22,39.52-.59,13.17-1.34,26.31-2.98,39.41h0Z"/>
      <path class="cls-1" d="m278.47,212.56c-1.64-13.18-2.39-26.42-2.99-39.68-.47-13.1-.81-26.71-.24-39.79,1.64,12.98,2.39,26.59,2.99,39.68.48,13.26.8,26.51.24,39.79h0Z"/>
      <path class="cls-1" d="m278.88,127.28c.11,6.5-7.98,10.34-12.92,5.84-3.44-2.89-3.44-8.8,0-11.69,4.95-4.5,13.04-.66,12.93,5.85h0Zm0,0c.11-3.72-3.49-6.91-7.08-6.39-7.53.98-7.53,11.81,0,12.78,3.59.52,7.19-2.68,7.08-6.39h0Z"/>
      <path class="cls-1" d="m279.18,127.53c15.54,1.01,31.09,2.8,46.53,4.77,0,0,.77.1.77.1.09.02.41.03.05.03-.78.05-1.13,1.19-.46,1.64,0,0-.02-.01-.03-.02l-.64-.44c-.63-.44-11.33-7.93-11.48-8.06,0,0-.16-.11-.16-.11l-.06-.05c.13.08.24.12.41.12,0,0-.16,0-.16,0h-.78c-11.43.11-22.85.07-34.29-.43,11.66-1.07,23.36-1.65,35.05-2.1.54-.06,1.03.15,1.45.47,0,0,1.3.87,1.3.87.62.48,11.1,7.45,11.35,7.86.93,1.02.22,2.88-1.17,2.98-.63.03-.56-.03-.73-.04l-.77-.11-3.09-.42c-14.39-2-28.84-4.18-43.09-7.04h0Z"/>
      <path class="cls-1" d="m271.16,120.77c-2.5-15.37-4.23-30.93-5.78-46.42,0,0-.08-.78-.08-.78,0-.09-.07-.41.02-.05.23.75,1.41.83,1.7.08,0,0,0,.02-.01.03l-.28.73c-.29.71-5.19,12.82-5.28,12.99,0,0-.07.18-.07.18l-.03.07s.03-.09.04-.13c.01-.09.02-.17,0-.29.02.12.19.78.22.91,2.66,11.12,5.18,22.26,7.25,33.52-3.66-11.12-6.84-22.39-9.9-33.69-.18-.52-.09-1.04.13-1.51,0,0,.55-1.46.55-1.46.33-.71,4.78-12.49,5.12-12.83.79-1.14,2.76-.86,3.16.47.17.6.09.55.13.72,0,0,.07.78.07.78,0,0,.28,3.1.28,3.1,1.28,14.47,2.38,29.04,2.79,43.57h0Z"/>
      <path class="cls-1" d="m267.22,132.12c-9.79,12.11-20.24,23.77-30.75,35.25,0,0-.53.57-.53.57-.07.06-.26.32-.05.02.41-.67-.32-1.61-1.07-1.32,0,0,.02,0,.03-.01l.73-.27c.72-.26,13.01-4.68,13.21-4.72,0,0,.18-.06.18-.06l.07-.03c-.14.06-.23.13-.34.26.07-.1.46-.66.54-.77,6.51-9.39,13.14-18.7,20.15-27.75-5.85,10.14-12.13,20.03-18.51,29.83-.27.48-.71.75-1.22.91,0,0-1.46.56-1.46.56-.75.23-12.49,4.76-12.97,4.74-1.37.17-2.48-1.48-1.76-2.67.34-.53.35-.44.45-.57l.53-.57,2.13-2.28c9.94-10.6,20.06-21.13,30.62-31.12h0Z"/>
      <path class="cls-1" d="m42.58,212.56c-.57-31.63.75-63.49,3.96-94.97.58,31.63-.76,63.49-3.96,94.97h0Z"/>
      <path class="cls-1" d="m56.98,212.56c-3.07-29.27-4.29-58.91-3.58-88.33,3.09,29.27,4.28,58.91,3.58,88.33h0Z"/>
      <path class="cls-1" d="m56.73,111.24c.11,6.5-7.98,10.34-12.92,5.84-3.44-2.89-3.44-8.8,0-11.69,4.95-4.5,13.04-.66,12.93,5.85h0Zm0,0c.11-3.72-3.49-6.91-7.08-6.39-7.53.98-7.53,11.81,0,12.78,3.59.52,7.19-2.68,7.08-6.39h0Z"/>
      <path class="cls-1" d="m51.49,118.32c6.3,14.78,11.87,29.94,17.26,45.07.02.1.16.38-.01.05-.36-.6-1.38-.51-1.62.16-.04.09-.06.25-.04.12l.1-.78,1.8-12.52.24-1.56c.01-.08,0,0,0,.03,0,.12.03.25.08.36.02.03-.01-.02-.01-.02l-.18-.35c-5.43-10.55-10.74-21.15-15.62-31.98,6.27,10.09,12.13,20.43,17.86,30.82.15.28.35.6.39.92.08.38-.16,1.73-.19,2.14,0,0-1.65,12.54-1.65,12.54-.1.61-.11,1.42-.64,1.91-1.09,1.1-2.81.42-3.1-.92-.15-.45-1.12-3.22-1.29-3.74-4.79-13.95-9.43-28.02-13.39-42.23h0Z"/>
      <path class="cls-1" d="m54.21,105.55c8.31-13.17,17.31-25.98,26.41-38.61,0,0,.46-.63.46-.63.06-.07.22-.35.05-.03-.33.71.51,1.56,1.22,1.19,0,0-.02.01-.03.02l-.69.35c-.69.34-12.38,6.17-12.56,6.24,0,0-.18.09-.18.09l-.07.03s.08-.05.11-.07c.07-.06.13-.12.19-.23-.06.1-.38.71-.44.83-5.37,10.09-10.86,20.11-16.76,29.91,4.63-10.75,9.7-21.31,14.89-31.8.21-.51.62-.83,1.1-1.05,0,0,1.38-.72,1.38-.72.72-.32,11.85-6.19,12.33-6.22,1.34-.33,2.64,1.18,2.06,2.45-.28.56-.3.47-.38.62l-.46.63-1.85,2.51c-8.63,11.69-17.45,23.34-26.77,34.49h0Z"/>
      <path class="cls-1" d="m43.34,111.42c-14.17-7.05-28.04-14.87-41.74-22.78-.07-.05-.37-.19-.03-.05.74.26,1.5-.66,1.06-1.33,0,0,.01.02.02.03l.42.65c.64,1.03,7.2,11.39,7.61,12.11-.09-.13-.17-.2-.33-.27,0,0,.15.06.15.06,3.04,1.25,6.34,2.59,9.35,3.87,7.66,3.22,15.28,6.53,22.82,10.09-9.93-3.13-19.73-6.63-29.48-10.25,0,0-2.92-1.09-2.92-1.09-.46-.2-1.17-.35-1.51-.75-.15-.14-.26-.35-.38-.52-.1-.13-7.24-11.15-7.63-11.77,0,0-.42-.66-.42-.66,0,0-.03-.05-.03-.05-.91-1.35.44-3.26,2.02-2.75,13.94,8.01,27.67,16.49,41.02,25.45h0Z"/>
    </g>
  </g>
</svg>