<?xml version="1.0" encoding="UTF-8"?>
<svg id="Capa_2" data-name="Capa 2" xmlns="http://www.w3.org/2000/svg" viewBox="0 0 214.65 194.24">
  <defs>
    <style>
      .cls-1 {
        stroke: #1d1d1b;
        stroke-miterlimit: 10;
      }

      .cls-1, .cls-2 {
        fill: none;
        stroke-width: 3.17px;
      }

      .cls-3 {
        fill: #dbdb3e;
      }

      .cls-3, .cls-4, .cls-5, .cls-6, .cls-7, .cls-8, .cls-9, .cls-10 {
        stroke-width: 0px;
      }

      .cls-4 {
        fill: #a8a527;
      }

      .cls-2 {
        stroke: #000;
        stroke-linecap: round;
        stroke-linejoin: round;
      }

      .cls-5 {
        fill: #9b2323;
      }

      .cls-6 {
        fill: #4172d6;
      }

      .cls-7 {
        fill: #2458a3;
      }

      .cls-8 {
        fill: #dd3c3c;
      }

      .cls-9 {
        fill: #1d1d1b;
      }

      .cls-10 {
        fill: #3370db;
      }
    </style>
  </defs>
  <g id="Capa_2-2" data-name="Capa 2">
    <g>
      <g>
        <g>
          <path class="cls-7" d="m202.18,73.96c7.02,0,12.21,6.56,10.59,13.38l-24.9,105.31h-12.86v-.27c8.36-30.82,13.98-56.19,17.7-74.52,4.02-19.81,7.65-40.54.84-43.9h8.63Z"/>
          <path class="cls-10" d="m188.83,73.96h4.71c6.81,3.36,3.17,24.09-.84,43.9-3.71,18.33-9.33,43.7-17.7,74.52v.27h-42.49l-16.44-69.55-6.09-25.79,2.44,3.29.11-2.06c0-.17.16-.3.33-.29,2.22.19,4,.05,5.19-.13,1.56-.22,2.63-.56,3.59-1.33.29-.24.51-.46.65-.62l-.56-1.24,1.25-.57c.05.17.27.21.37.05.7-1.13,1.38-2.25,2.08-3.4.48-.78.92-1.49,1.11-2.32l3.54.87c1.35-5.44,2.57-10.65,3.71-15.6h55.03Zm-2.57,34.58v-2.4c0-6.35-5.05-11.52-11.35-11.71-.57-.06-1.16-.11-1.76-.11h-24.36c-.62,0-1.22.05-1.81.13-6.25.22-11.25,5.38-11.25,11.7v.59c-.02.22-.02.44-.02.67v5.98c0,7.22,5.86,13.08,13.08,13.08h24.36c7.22,0,13.08-5.86,13.08-13.08v-4.24c.03-.21.03-.4.03-.6Zm-7.95,54.84c.68-1.11,1.29-2.1,1.19-3.48-.11-1.52-.97-2.84-1.79-4.09-.94-1.43-1.94-2.84-2.79-4.33-.06-.1-.19-.13-.29-.08l-3.09,1.83-1.51-2.54s.1-.08.11-.14l2.87-7.13-1.83.98c-.14.08-.33.02-.41-.14-1-2-2.05-3.43-2.83-4.36-.98-1.21-1.84-1.95-3-2.36-.35-.13-.65-.19-.86-.22l-.76,1.13-1.14-.78c.11-.14.02-.35-.16-.35h-3.98c-1.32,0-2.46-.02-3.59.79-1.25.89-1.92,2.32-2.56,3.65-.75,1.56-1.43,3.14-2.24,4.65-.06.11-.03.24.08.29l3.14,1.68-.95,1.76c-.06-.05-.14-.08-.22-.06l-7.65.73,1.71,1.16c.14.1.16.3.06.44-1.32,1.81-2.11,3.4-2.59,4.49-.62,1.44-.89,2.54-.73,3.76.06.37.14.67.21.87l1.33.16-.16,1.38c-.17-.05-.32.14-.24.3.6,1.17,1.22,2.35,1.83,3.52s1.13,2.21,2.35,2.83c1.36.71,2.94.65,4.43.6,1.71-.05,3.44-.17,5.16-.14.11,0,.21-.08.21-.21l.05-3.38,2.95.03c0,.06.03.13.06.19l4.6,6.16.11-2.06c0-.17.16-.3.33-.29,2.22.19,4,.05,5.19-.13,1.56-.22,2.63-.56,3.59-1.33.29-.24.51-.46.65-.62l-.56-1.24,1.25-.57c.05.17.27.21.37.05.7-1.13,1.38-2.25,2.08-3.4Z"/>
          <path class="cls-10" d="m186.26,106.15v2.4c0,.21,0,.4-.03.6v-1.75c0-6.62-4.92-12.09-11.32-12.97,6.3.19,11.35,5.36,11.35,11.71Z"/>
          <path class="cls-7" d="m186.23,109.15v4.24c0,7.22-5.86,13.08-13.08,13.08h-24.36c-7.22,0-13.08-5.86-13.08-13.08v-5.98c0-.22,0-.44.02-.67v1.81c0,6.48,5.25,11.73,11.73,11.73h27.08c6.27,0,11.4-4.94,11.7-11.13Z"/>
          <path class="cls-9" d="m186.23,107.4v1.75c-.3,6.19-5.43,11.13-11.7,11.13h-27.08c-6.48,0-11.73-5.25-11.73-11.73v-1.81c.32-6.32,5.11-11.44,11.25-12.28.16-.03.32-.03.48-.03h27.08c.13,0,.25,0,.38.02,6.4.87,11.32,6.35,11.32,12.97Z"/>
          <path class="cls-10" d="m175.87,166.73l-1.25.57-1.71-3.73c-.05-.11-.16-.19-.29-.17l-6.59.13c-.16,0-.3-.13-.3-.29l-.08-2-4.92,5.17c-.06.06-.1.13-.1.21l-2.95-.03.03-2.57c0-.13-.1-.22-.22-.21-3.41.32-7.4.32-11.75-.41-.83-.13-1.22-.19-1.84-.33l.16-1.38,4.08.49c.13.02.24-.05.3-.14l3.32-5.7c.08-.14.25-.19.4-.11l1.75.97-1.86-6.9c-.02-.06-.06-.13-.11-.16l.95-1.76,2.11,1.13c.11.05.24,0,.29-.11,1.29-3.17,3.11-6.71,5.75-10.25.49-.67.75-1,1.16-1.48l1.14.78-2.3,3.4c-.08.1-.08.22-.02.33l3.56,5.54c.08.14.05.33-.1.43l-1.65,1.11,6.98,1.49c.08.02.16,0,.22-.05l1.51,2.54-2.03,1.21c-.11.06-.14.21-.06.3,2.05,2.75,4.11,6.16,5.76,10.25.3.78.46,1.14.67,1.75Z"/>
          <path class="cls-4" d="m149.31,1.59c7.02,0,12.21,6.56,10.59,13.38l-13.95,59h-12.14c2.46-10.68,4.46-20.11,6.09-28.19,4-19.73,7.62-40.36.81-43.71-.7-.35-1.43-.48-2.16-.48h10.76Z"/>
          <path class="cls-3" d="m138.55,1.59c.73,0,1.46.13,2.16.48,6.81,3.35,3.19,23.98-.81,43.71-1.63,8.08-3.63,17.51-6.09,28.19h-14.84l1.17-2.92-1.83.98c-.14.08-.33.02-.41-.14-1-2-2.05-3.43-2.83-4.36-.98-1.21-1.84-1.95-3-2.36-.35-.13-.65-.19-.86-.22l-.76,1.13-1.14-.78c.11-.14.02-.35-.16-.35h-3.98c-1.32,0-2.46-.02-3.59.79-1.25.89-1.92,2.32-2.56,3.65-.75,1.54-1.41,3.11-2.22,4.6-.11-.02-.24-.02-.37-.02h-8.6c-1.59-.78-3.38-.44-4.71,0h-14.43l-13.95-59c-1.6-6.82,3.57-13.38,10.59-13.38h73.22Zm-5.16,39.2v-7.02c0-5.54-3.86-10.19-9.03-11.41-1.27-.41-2.63-.63-4.05-.63h-24.38c-1.41,0-2.78.22-4.05.63-5.17,1.22-9.03,5.87-9.03,11.41v7.02c0,7.22,5.86,13.08,13.08,13.08h24.38c7.22,0,13.08-5.86,13.08-13.08Z"/>
          <path class="cls-10" d="m135.73,106.15c0-6.32,5-11.48,11.25-11.7-6.14.84-10.94,5.97-11.25,12.28v-.59Z"/>
          <path class="cls-10" d="m118.97,73.96h14.84c-1.14,4.95-2.36,10.16-3.71,15.6l-3.54-.87c.08-.37.11-.75.08-1.16-.11-1.52-.97-2.84-1.79-4.09-.94-1.43-1.94-2.84-2.79-4.33-.06-.1-.19-.13-.29-.08l-3.09,1.83-1.51-2.54s.08-.08.11-.14l1.7-4.21Z"/>
          <path class="cls-4" d="m133.39,36.17v4.62c0,7.22-5.86,13.08-13.08,13.08h-24.38c-7.22,0-13.08-5.86-13.08-13.08v-4.62c0,6.48,5.25,11.73,11.73,11.73h27.08c6.48,0,11.73-5.25,11.73-11.73Z"/>
          <path class="cls-9" d="m133.39,34.81v1.36c0,6.48-5.25,11.73-11.73,11.73h-27.08c-6.48,0-11.73-5.25-11.73-11.73v-1.36c0-5.81,3.79-10.73,9.03-12.44.86-.21,1.76-.32,2.7-.32h27.08c.94,0,1.84.11,2.7.32,5.24,1.71,9.03,6.63,9.03,12.44Z"/>
          <path class="cls-3" d="m133.39,33.78v1.03c0-5.81-3.79-10.73-9.03-12.44,5.17,1.22,9.03,5.87,9.03,11.41Z"/>
          <path class="cls-6" d="m126.63,87.53c.03.41,0,.79-.08,1.16-.19.83-.63,1.54-1.11,2.32-.7,1.14-1.38,2.27-2.08,3.4-.1.16-.32.13-.37-.05-.21-.6-.37-.97-.67-1.75-1.65-4.09-3.71-7.51-5.76-10.25-.08-.1-.05-.24.06-.3l2.03-1.21,3.09-1.83c.1-.05.22-.02.29.08.86,1.49,1.86,2.9,2.79,4.33.83,1.25,1.68,2.57,1.79,4.09Z"/>
          <path class="cls-10" d="m123,94.36l-1.25.57-1.71-3.73c-.05-.11-.16-.19-.29-.17l-6.59.13c-.16,0-.3-.13-.3-.29l-.08-2-3.84,4.05-1.32-5.57c-.17-.75-.27-1.48-.29-2.21v-.49c.03-2.95,1.29-5.68,3.33-7.62l6.27,1.33c.08.02.16,0,.22-.05l1.51,2.54-2.03,1.21c-.11.06-.14.21-.06.3,2.05,2.75,4.11,6.16,5.76,10.25.3.78.46,1.14.67,1.75Z"/>
          <path class="cls-3" d="m124.36,22.36c-.86-.21-1.76-.32-2.7-.32h-27.08c-.94,0-1.84.11-2.7.32,1.27-.41,2.63-.63,4.05-.63h24.38c1.41,0,2.78.22,4.05.63Z"/>
          <path class="cls-6" d="m121.74,94.93l.56,1.24c-.14.16-.37.38-.65.62-.95.78-2.03,1.11-3.59,1.33-1.19.17-2.97.32-5.19.13-.17-.02-.33.11-.33.29l-.11,2.06-2.44-3.29-1.05-4.4,3.84-4.05.08,2c0,.16.14.29.3.29l6.59-.13c.13-.02.24.06.29.17l1.71,3.73Z"/>
          <path class="cls-6" d="m118.97,73.96l-1.7,4.21c-.03.06-.06.11-.11.14-.06.05-.14.06-.22.05l-6.27-1.33c1.94-1.89,4.57-3.06,7.54-3.06h.76Z"/>
          <path class="cls-3" d="m109.98,97.31l6.09,25.79-1.05.25h-16.52l6.05-25.55c.11,0,.21-.08.21-.21l.02-.7,2.25-9.55c.17-.75.27-1.48.3-2.21.02.73.11,1.46.29,2.21l1.32,5.57-1.08,1.13c-.11.11-.11.27-.03.4l2.16,2.87Z"/>
          <path class="cls-3" d="m111.7,75.33c.08.14.05.33-.1.43l-1.65,1.11.71.16c-2.05,1.94-3.3,4.67-3.33,7.62-.06-3.48-1.79-6.63-4.51-8.6,1.25-2.92,2.97-6.09,5.33-9.28.49-.67.75-1,1.16-1.48l1.14.78-2.3,3.4c-.08.1-.08.22-.02.33l3.56,5.54Z"/>
          <path class="cls-10" d="m107.33,84.64v.49c-.02-.16-.02-.33,0-.49Z"/>
          <path class="cls-5" d="m107.33,84.64c-.02.16-.02.33,0,.49-.03.73-.13,1.46-.3,2.21l-2.25,9.55.06-5.25c.02-.13-.1-.22-.22-.21-3.41.32-7.4.32-11.75-.41-.65-.1-1.03-.16-1.46-.25.03-.48.06-.95.1-1.41l3.76.44c.13.02.24-.05.3-.14l3.32-5.7c.08-.14.25-.19.4-.11l1.75.97-1.86-6.9c-.05-.14-.17-.24-.33-.22l-7.65.73,1.71,1.16c.14.1.16.3.06.44-.57.78-1.05,1.52-1.43,2.21-.35-4.19-1.46-7.16-3.7-8.27h8.6c.13,0,.25,0,.37.02,0,.02,0,.03-.02.05-.06.11-.03.24.08.29l5.25,2.81c.11.05.24,0,.29-.11.13-.32.27-.63.41-.97,2.71,1.97,4.44,5.13,4.51,8.6Z"/>
          <path class="cls-5" d="m104.62,91.44c.13-.02.24.08.22.21l-.06,5.25-.22.9c-1.71-.03-3.44.1-5.16.14-1.49.05-3.06.11-4.43-.6-1.22-.62-1.75-1.65-2.35-2.83-.43-.84-.87-1.7-1.32-2.54.05-.41.08-.81.11-1.21.43.1.81.16,1.46.25,4.35.73,8.33.73,11.75.41Z"/>
          <path class="cls-5" d="m104.55,97.8l-6.05,25.55-16.38,69.3h-12.75v-.79c8.35-30.68,13.95-55.93,17.65-74.18,1.83-8.94,3.56-18.08,4.27-25.7.44.84.89,1.7,1.32,2.54.6,1.17,1.13,2.21,2.35,2.83,1.36.71,2.94.65,4.43.6,1.71-.05,3.44-.17,5.16-.14Z"/>
          <path class="cls-5" d="m99.17,77.91l1.86,6.9-1.75-.97c-.14-.08-.32-.03-.4.11l-3.32,5.7c-.06.1-.17.16-.3.14l-3.76-.44c.17-2.62.19-5.03.03-7.13.38-.68.86-1.43,1.43-2.21.1-.14.08-.35-.06-.44l-1.71-1.16,7.65-.73c.16-.02.29.08.33.22Z"/>
          <path class="cls-8" d="m91.54,82.23c.16,2.1.14,4.51-.03,7.13l-1.65-.21c-.06-.21-.14-.51-.21-.87-.16-1.22.11-2.32.73-3.76.27-.62.63-1.4,1.16-2.29Z"/>
          <path class="cls-8" d="m83.13,73.96h4.71c2.24,1.11,3.35,4.08,3.7,8.27-.52.89-.89,1.67-1.16,2.29-.62,1.44-.89,2.54-.73,3.76.06.37.14.67.21.87l1.65.21c-.03.46-.06.94-.1,1.41-.11-.02-.24-.05-.38-.08-.17-.05-.32.14-.24.3.17.33.33.65.51.98-.71,7.62-2.44,16.76-4.27,25.7-3.7,18.25-9.3,43.5-17.65,74.18v.79H26.78L1.88,87.34c-1.6-6.82,3.57-13.38,10.59-13.38h70.66Zm-2.6,39.43v-7.24c0-6.33-5.02-11.49-11.3-11.71-.57-.06-1.17-.11-1.78-.11h-24.38c-.6,0-1.21.05-1.78.11-6.29.22-11.3,5.38-11.3,11.71v7.24c0,7.22,5.86,13.08,13.08,13.08h24.38c7.22,0,13.08-5.86,13.08-13.08Zm-7.95,50c.68-1.11,1.29-2.1,1.19-3.48-.11-1.52-.97-2.84-1.79-4.09-.94-1.43-1.94-2.84-2.79-4.33-.06-.1-.19-.13-.29-.08l-3.09,1.83-1.51-2.54s.1-.08.11-.14l2.87-7.13-1.83.98c-.14.08-.33.02-.41-.14-1-2-2.05-3.43-2.83-4.36-.98-1.21-1.84-1.95-3-2.36-.35-.13-.65-.19-.86-.22l-.76,1.13-1.14-.78c.11-.14.02-.35-.16-.35h-3.98c-1.32,0-2.46-.02-3.59.79-1.25.89-1.92,2.32-2.56,3.65-.75,1.56-1.43,3.14-2.24,4.65-.06.11-.03.24.08.29l3.14,1.68-.95,1.76c-.06-.05-.14-.08-.22-.06l-7.65.73,1.71,1.16c.14.1.16.3.06.44-1.32,1.81-2.11,3.4-2.59,4.49-.62,1.44-.89,2.54-.73,3.76.06.37.14.67.21.87l1.33.16-.16,1.38c-.17-.05-.32.14-.24.3.6,1.17,1.22,2.35,1.83,3.52s1.13,2.21,2.35,2.83c1.36.71,2.94.65,4.43.6,1.71-.05,3.44-.17,5.16-.14.11,0,.21-.08.21-.21l.05-3.38,2.95.03c0,.06.03.13.06.19l4.6,6.16.11-2.06c0-.17.16-.3.33-.29,2.22.19,4,.05,5.19-.13,1.56-.22,2.63-.56,3.59-1.33.29-.24.51-.46.65-.62l-.56-1.24,1.25-.57c.05.17.29.21.37.05.7-1.13,1.38-2.25,2.08-3.4Z"/>
          <path class="cls-8" d="m91.41,90.77c-.03.4-.06.79-.11,1.21-.17-.33-.33-.65-.51-.98-.08-.16.06-.35.24-.3.14.03.27.06.38.08Z"/>
          <path class="cls-3" d="m91.89,22.36c-5.24,1.71-9.03,6.63-9.03,12.44v-1.03c0-5.54,3.86-10.19,9.03-11.41Z"/>
          <path class="cls-5" d="m80.52,108.55v4.84c0,7.22-5.86,13.08-13.08,13.08h-24.38c-7.22,0-13.08-5.86-13.08-13.08v-4.84c0,6.48,5.25,11.73,11.73,11.73h27.08c6.48,0,11.73-5.25,11.73-11.73Z"/>
          <path class="cls-9" d="m80.52,107.4v1.14c0,6.48-5.25,11.73-11.73,11.73h-27.08c-6.48,0-11.73-5.25-11.73-11.73v-1.14c0-6.62,4.92-12.09,11.3-12.97.14-.02.29-.02.43-.02h27.08c.14,0,.29,0,.43.02,6.38.87,11.3,6.35,11.3,12.97Z"/>
          <path class="cls-8" d="m80.52,106.15v1.25c0-6.62-4.92-12.09-11.3-12.97,6.29.22,11.3,5.38,11.3,11.71Z"/>
          <path class="cls-8" d="m70.13,166.73l-1.25.57-1.71-3.73c-.05-.11-.16-.19-.29-.17l-6.59.13c-.16,0-.3-.13-.3-.29l-.08-2-4.92,5.17c-.06.06-.1.13-.1.21l-2.95-.03.03-2.57c.02-.13-.1-.22-.22-.21-3.41.32-7.4.32-11.75-.41-.83-.13-1.22-.19-1.84-.33l.16-1.38,4.08.49c.13.02.24-.05.3-.14l3.32-5.7c.08-.14.25-.19.4-.11l1.75.97-1.86-6.9c-.02-.06-.06-.13-.11-.16l.95-1.76,2.11,1.13c.11.05.24,0,.29-.11,1.29-3.17,3.11-6.71,5.75-10.25.51-.67.75-1,1.16-1.48l1.14.78-2.3,3.4c-.08.1-.08.22-.02.33l3.56,5.54c.08.14.05.33-.1.43l-1.65,1.11,6.98,1.49c.08.02.16,0,.22-.05l1.51,2.54-2.03,1.21c-.11.06-.14.21-.06.3,2.05,2.75,4.11,6.16,5.76,10.25.3.78.46,1.14.67,1.75Z"/>
          <path class="cls-8" d="m41.29,94.44c-6.38.87-11.3,6.35-11.3,12.97v-1.25c0-6.33,5.02-11.49,11.3-11.71Z"/>
        </g>
        <g>
          <path class="cls-1" d="m68.72,74.01l-.02-.05-13.95-59c-1.6-6.82,3.57-13.38,10.59-13.38h83.98c7.02,0,12.21,6.56,10.59,13.38l-13.95,59"/>
          <line class="cls-1" x1="98.51" y1="123.36" x2="115.03" y2="123.36"/>
        </g>
      </g>
      <path class="cls-2" d="m187.86,192.66h-55.33l-24.9-105.31c-1.61-6.83,3.56-13.38,10.58-13.38h83.98c7.02,0,12.2,6.55,10.58,13.38l-24.9,105.31Z"/>
      <path class="cls-2" d="m82.12,192.66H26.79L1.88,87.34c-1.61-6.83,3.56-13.38,10.58-13.38h83.98c7.02,0,12.2,6.55,10.58,13.38l-24.9,105.31Z"/>
    </g>
  </g>
</svg>