<?xml version="1.0" encoding="UTF-8"?>
<svg id="Capa_2" data-name="Capa 2" xmlns="http://www.w3.org/2000/svg" viewBox="0 0 338.38 150.19">
  <defs>
    <style>
      .cls-1 {
        fill: #cbf2b1;
      }

      .cls-1, .cls-2, .cls-3, .cls-4, .cls-5, .cls-6, .cls-7, .cls-8, .cls-9, .cls-10, .cls-11, .cls-12, .cls-13, .cls-14 {
        stroke-width: 0px;
      }

      .cls-2 {
        fill: #3f3f3f;
      }

      .cls-3 {
        fill: #9acc79;
      }

      .cls-4 {
        fill: #2d3f22;
      }

      .cls-5 {
        fill: #d9ffc0;
      }

      .cls-6 {
        fill: #86b767;
      }

      .cls-8 {
        fill: #b7ef92;
      }

      .cls-9 {
        fill: #939393;
      }

      .cls-10 {
        fill: #4a6638;
      }

      .cls-11 {
        fill: #fff;
      }

      .cls-12 {
        fill: #8cbc6d;
      }

      .cls-13 {
        fill: #668e4d;
      }

      .cls-14 {
        fill: #e8ffd9;
      }
    </style>
  </defs>
  <g id="Capa_2-2" data-name="Capa 2">
    <g>
      <g>
        <path class="cls-6" d="m328.64,25.49v88.56c0,7.85-6.37,14.22-14.22,14.22h-17.36c0-11.58-9.38-20.98-20.98-20.98-1.12,0-2.23.09-3.3.26v-29.64h23.79c4.55,0,8.25-3.7,8.25-8.25v-7.61c0-.09,0-.17-.02-.26.02-.09.02-.19.02-.28v-7.61c0-4.57-3.7-8.27-8.25-8.27h-23.79v-20.15c0-7.85-6.37-14.22-14.22-14.22h55.85c7.85,0,14.22,6.37,14.22,14.22Z"/>
        <path class="cls-13" d="m304.83,62.05v7.61c0,4.55-3.7,8.25-8.25,8.25h-23.79v-8.15h23.79c4.47,0,8.09-3.54,8.23-7.97.02.09.02.17.02.26Z"/>
        <path class="cls-4" d="m304.83,53.91v7.61c0,.09,0,.19-.02.28-.12-4.45-3.77-8.01-8.23-8.01h-23.79v-8.15h23.79c4.55,0,8.25,3.7,8.25,8.27Z"/>
        <path class="cls-4" d="m296.58,53.78c4.47,0,8.11,3.56,8.23,8.01-.14,4.43-3.77,7.97-8.23,7.97h-23.79v-15.98h23.79Z"/>
        <path class="cls-2" d="m292.78,128.26h4.29c0,11.6-9.38,20.98-20.98,20.98s-20.98-9.38-20.98-20.98h4.29c0,9.23,7.48,16.69,16.69,16.69s16.69-7.47,16.69-16.69Z"/>
        <path class="cls-2" d="m297.07,128.26h-4.29c0-9.21-7.47-16.69-16.69-16.69-1.13,0-2.23.1-3.3.31v-4.34c1.06-.17,2.18-.26,3.3-.26,11.6,0,20.98,9.4,20.98,20.98Z"/>
        <path class="cls-9" d="m287.83,128.26h4.95c0,9.23-7.47,16.69-16.69,16.69s-16.69-7.47-16.69-16.69h4.95c0,6.49,5.27,11.74,11.74,11.74s11.74-5.25,11.74-11.74Z"/>
        <path class="cls-9" d="m292.78,128.26h-4.95c0-6.47-5.25-11.72-11.74-11.72-1.27,0-2.49.21-3.65.58.23-.99.35-2.02.35-3.07v-2.16c1.06-.21,2.16-.31,3.3-.31,9.23,0,16.69,7.48,16.69,16.69Z"/>
        <path class="cls-11" d="m264.35,128.26h23.48c0,6.49-5.25,11.74-11.74,11.74s-11.74-5.25-11.74-11.74Z"/>
        <path class="cls-11" d="m287.83,128.26h-23.48c0-.42.02-.84.07-1.26,4.03-1.83,7.06-5.48,8.02-9.89,1.15-.37,2.37-.58,3.65-.58,6.49,0,11.74,5.25,11.74,11.72Z"/>
        <path class="cls-9" d="m272.79,111.89v2.16c0,1.05-.12,2.08-.35,3.07-4.31,1.41-7.54,5.25-8.02,9.89-1.53.7-3.24,1.13-5.02,1.24,0-8.08,5.77-14.83,13.4-16.36Z"/>
        <path class="cls-2" d="m272.79,107.54v4.34c-7.62,1.53-13.4,8.29-13.4,16.36-.28.02-.54.02-.82.02h-3.47c0-10.47,7.67-19.13,17.69-20.72Z"/>
        <path class="cls-8" d="m272.79,77.91v29.64c-10.01,1.59-17.69,10.26-17.69,20.72h-25.29v-61.47c0-6.75-5.46-12.23-12.23-12.23h-15.16c-6.75,0-12.23,5.48-12.23,12.23v61.47h-42.37c-.26-11.37-9.54-20.5-20.97-20.5s-20.7,9.12-20.97,20.5h-26.09c-8.58,0-15.19-7.54-14.09-16.05l11.51-88.56c.92-7.08,6.96-12.38,14.09-12.38h167.26c7.85,0,14.22,6.37,14.22,14.22v20.15h-17.2c-4.55,0-8.25,3.7-8.25,8.27v7.61c0,.09,0,.19.02.28-.02.09-.02.17-.02.26v7.61c0,4.55,3.7,8.25,8.25,8.25h17.2Zm-96.18-8.25v-7.61c0-.09,0-.17-.02-.26.02-.09.02-.19.02-.28v-7.61c0-4.57-3.7-8.27-8.27-8.27h-40.97c-4.57,0-8.27,3.7-8.27,8.27v7.61c0,.09,0,.19.02.28-.02.09-.02.17-.02.26v7.61c0,4.55,3.7,8.25,8.27,8.25h40.97c4.57,0,8.27-3.7,8.27-8.25Zm-76.28.28c.05-.07.02-.17-.07-.17h-9.44l5.27-15.07c.03-.1-.1-.17-.17-.09l-2.98,3.96,3.16-9.02c.03-.1-.1-.19-.17-.1l-19.66,26.13c-.05.05,0,.16.07.16h3.68l-3.75,4.99c-.05.07,0,.16.07.16h10.05c-2.93,5.7-5.86,11.43-8.81,17.11-.05.1.09.21.16.12,2.27-2.83,4.52-5.65,6.79-8.46-2.3,4.5-4.62,9-6.94,13.5-.05.1.09.19.16.1,7.54-9.38,15.07-18.77,22.61-28.17.05-.05.02-.16-.07-.16h-3.94c1.34-1.66,2.67-3.33,4.01-4.99Z"/>
        <path class="cls-3" d="m272.79,69.76v8.15h-17.2c-4.55,0-8.25-3.7-8.25-8.25v-7.61c0-.09,0-.17.02-.26.14,4.43,3.77,7.97,8.23,7.97h17.2Z"/>
        <path class="cls-10" d="m272.79,53.78v15.98h-17.2c-4.47,0-8.09-3.54-8.23-7.97.12-4.45,3.77-8.01,8.23-8.01h17.2Z"/>
        <path class="cls-10" d="m272.79,45.64v8.15h-17.2c-4.47,0-8.11,3.56-8.23,8.01-.02-.09-.02-.19-.02-.28v-7.61c0-4.57,3.7-8.27,8.25-8.27h17.2Z"/>
        <path class="cls-11" d="m272.44,117.12c-.96,4.41-3.99,8.06-8.02,9.89.49-4.64,3.72-8.48,8.02-9.89Z"/>
        <path class="cls-9" d="m264.42,127.01c-.05.42-.07.84-.07,1.26h-4.95v-.02c1.78-.1,3.49-.54,5.02-1.24Z"/>
        <path class="cls-2" d="m229.81,66.8v61.47h-7.22v-61.47c0-6.75-5.48-12.23-12.24-12.23h7.24c6.77,0,12.23,5.48,12.23,12.23Z"/>
        <path class="cls-9" d="m222.59,66.8v61.47h-25.15v-61.47c0-6.75,5.46-12.23,12.23-12.23h.68c6.77,0,12.24,5.48,12.24,12.23Z"/>
        <path class="cls-12" d="m216.92,8.82v2.46h-65.06v-2.46c0-4.12,3.33-7.47,7.45-7.47h50.17c4.12,0,7.45,3.35,7.45,7.47Z"/>
        <path class="cls-5" d="m202.43,54.57h7.24c-6.77,0-12.23,5.48-12.23,12.23v61.47h-7.24v-61.47c0-6.75,5.48-12.23,12.23-12.23Z"/>
        <path class="cls-3" d="m176.61,62.05v7.61c0,4.55-3.7,8.25-8.27,8.25h-40.97c-4.57,0-8.27-3.7-8.27-8.25v-7.61c0-.09,0-.17.02-.26.14,4.43,3.77,7.97,8.25,7.97h40.97c4.48,0,8.11-3.54,8.25-7.97.02.09.02.17.02.26Z"/>
        <path class="cls-10" d="m176.61,53.91v7.61c0,.09,0,.19-.02.28-.12-4.45-3.77-8.01-8.25-8.01h-40.97c-4.48,0-8.13,3.56-8.25,8.01-.02-.09-.02-.19-.02-.28v-7.61c0-4.57,3.7-8.27,8.27-8.27h40.97c4.57,0,8.27,3.7,8.27,8.27Z"/>
        <path class="cls-10" d="m168.34,53.78c4.48,0,8.13,3.56,8.25,8.01-.14,4.43-3.77,7.97-8.25,7.97h-40.97c-4.48,0-8.11-3.54-8.25-7.97.12-4.45,3.77-8.01,8.25-8.01h40.97Z"/>
        <path class="cls-12" d="m147.71,1.35h11.6c-4.12,0-7.45,3.35-7.45,7.47v2.46h-11.6v-2.46c0-4.12,3.33-7.47,7.45-7.47Z"/>
        <path class="cls-2" d="m147.83,128.26c.02.17.02.33.02.51,0,11.58-9.38,20.98-20.98,20.98s-20.98-9.4-20.98-20.98c0-.17,0-.33.02-.51h4.29c-.02.17-.02.33-.02.51,0,9.21,7.48,16.68,16.69,16.68s16.69-7.47,16.69-16.68c0-.17,0-.33-.02-.51h4.29Z"/>
        <path class="cls-2" d="m147.83,128.26h-4.29c-.26-9-7.62-16.19-16.68-16.19s-16.41,7.19-16.68,16.19h-4.29c.26-11.37,9.56-20.5,20.97-20.5s20.7,9.12,20.97,20.5Z"/>
        <path class="cls-9" d="m143.54,128.26c.02.17.02.33.02.51,0,9.21-7.47,16.68-16.69,16.68s-16.69-7.47-16.69-16.68c0-.17,0-.33.02-.51h4.97c-.02.17-.02.33-.02.51,0,6.47,5.25,11.72,11.72,11.72s11.74-5.25,11.74-11.72c0-.17,0-.33-.02-.51h4.95Z"/>
        <path class="cls-9" d="m143.54,128.26h-4.95c-.26-6.26-5.41-11.23-11.72-11.23s-11.44,4.97-11.7,11.23h-4.97c.26-9,7.64-16.19,16.68-16.19s16.41,7.19,16.68,16.19Z"/>
        <path class="cls-11" d="m138.59,128.26c.02.17.02.33.02.51,0,6.47-5.25,11.72-11.74,11.72s-11.72-5.25-11.72-11.72c0-.17,0-.33.02-.51h23.43Z"/>
        <path class="cls-11" d="m138.59,128.26h-23.43c.26-6.26,5.41-11.23,11.7-11.23s11.46,4.97,11.72,11.23Z"/>
        <path class="cls-8" d="m100.26,74.92c.09,0,.12.1.07.16-7.54,9.4-15.07,18.79-22.61,28.17-.07.09-.21,0-.16-.1,2.32-4.5,4.64-9,6.94-13.5,3.94-4.92,7.88-9.82,11.81-14.72h3.94Z"/>
        <path class="cls-1" d="m95.92,49.44c.07-.09.21,0,.17.1l-3.16,9.02-12.93,17.16h-3.68c-.07,0-.12-.1-.07-.16l19.66-26.13Z"/>
        <path class="cls-14" d="m82.02,11.27h9.3c-7.13,0-13.17,5.3-14.09,12.38l-11.51,88.56c-1.1,8.51,5.51,16.05,14.09,16.05h-9.3c-8.58,0-15.19-7.54-14.09-16.05l11.51-88.56c.91-7.08,6.94-12.38,14.09-12.38Z"/>
        <path class="cls-8" d="m88.87,75.73c.07,0,.12.07.09.14-.85,1.67-1.73,3.33-2.58,5.01h-10.05c-.07,0-.12-.09-.07-.16l3.75-4.99h8.86Z"/>
        <path class="cls-1" d="m88.87,80.87c.07,0,.12.09.09.14l-4.45,8.63c-2.27,2.81-4.52,5.63-6.79,8.46-.07.09-.21-.02-.16-.12,2.95-5.69,5.88-11.41,8.81-17.11h2.49Z"/>
      </g>
      <path class="cls-7" d="m88.99,69.61c1.96-5.55,4.89-14.1,6.71-19.67,0,0,.09-.26.09-.26,0,0,.04-.13.04-.13.01-.02.04-.15.02-.04,0,.08.06.14.13.14.06.04.19-.11.12-.03,0,0-.16.22-.16.22-5.09,7.02-13.91,18.92-19.15,25.97,0,0-.04.05-.04.05,0,0-.06.09.03-.06.17-.32-.15-.71-.43-.68.04,0,.16,0,.21,0,0,0,2.19-.02,2.19-.02,2.9,0,7.45-.09,10.3-.06.46.09.74.64.54,1.06-.03.07-.26.51-.3.59,0,0-.99,1.95-.99,1.95-1.42,2.83-8.54,17.02-9.84,19.54,0,0-.06.12-.06.12l-.03.06c.26-.44-.12-1.15-.65-1.14-.19-.02-.42.05-.55.17-.18.17-.1.11-.1.09l.34-.43c6.89-8.73,14.43-17.68,21.66-26.1.16-.2.87-1.03,1.03-1.2-.08.13.05.28.17.27,0,0-.07,0-.07,0h-.27c-2.44-.08-6.31-.15-8.75-.17-.37,0-1.28-.02-1.64-.02-.18-.01-.61.07-.53-.25h0Zm.16.06c2.33.01,6.17-.07,8.57-.12,0,0,2.19-.06,2.19-.06,0,0,.27,0,.27,0,.1,0,.2,0,.3.07.4.29-.08.75-.24.97,0,0-.66.87-.66.87-6.42,8.58-13.33,17.61-20.1,25.94,0,0-.69.85-.69.85-.28.35-.64.9-1.21.83-.83-.08-1.16-.98-.71-1.63,2.06-3.99,9.05-17.22,11.19-21.31,0,0,.25-.48.25-.48,0,0,.04-.08.01-.02-.05.12-.06.27-.02.4.04.23.38.43.54.41-2.81-.02-7.29-.06-10.12-.08,0,0-2.19-.02-2.19-.02,0,0-.14,0-.14,0h-.07c-.41.04-.87-.51-.63-.96.11-.22.35-.47.48-.66,5.22-6.81,14.11-18.49,19.34-25.15,0,0,.17-.22.17-.22.03-.04.06-.08.1-.11.21-.15.53,0,.54.27-.02.21-.04.15-.05.22l-.05.13-.09.26c-2.04,5.49-5.08,14.01-6.99,19.57h0Z"/>
      <path class="cls-7" d="m255.1,128.27c-4.47.37-8.94.59-13.41.88-8.44,0-31.46,0-40.22,0-15.57-.16-38.45.57-53.62-.87,15.09-1.44,38.15-.71,53.62-.87,8.83,0,31.67,0,40.22,0,4.47.29,8.94.51,13.41.88h0Z"/>
      <path class="cls-7" d="m105.88,128.27c-8.56.18-25.95.59-34.52.71-8.17.69-15.96-6.1-16.18-14.36.85-14.55,9.49-74.28,11.13-89.02.32-3.02.96-6.18,2.74-8.72,2.84-4.3,7.84-6.97,12.99-6.96.59-.01,2.6.01,3.24,0,0,0,34.52,0,34.52,0,58.7.04,135.75-.03,194.17,0,7.98-.35,15.44,6.21,15.95,14.24.11,22.96.25,54.76-.25,77.78-.12,2.91-.1,10.12-.28,12.99-.42,7.64-7.4,14.01-15.04,13.71,0,0-17.26-.38-17.26-.38,0,0,17.26-.38,17.26-.38,7.03.01,13.37-5.98,13.48-13.04.04-1.11-.02-3.09-.04-4.27-.67-25.51-.46-58.61-.48-84.14.48-7.56-5.7-14.11-13.33-13.82-58.32-.03-135.56.02-194.17,0,0,0-34.52,0-34.52,0,0,0-2.16,0-2.16,0-6.02-.4-11.83,3.4-13.46,9.29-2.61,16.45-9.67,75.06-12.19,91.65-.59,7.69,6.23,14.39,13.89,14,8.65.12,25.89.52,34.52.71h0Z"/>
      <path class="cls-7" d="m209.48,1.36c-7.93-.13-15.81,1.45-23.73,1.35-3.01-.01-11.12-.01-14.24-.01,0,0-18.98,0-18.98,0,0,0-4.75,0-4.75,0-3.36-.09-6.28,2.85-6.18,6.2,0,0,0,2.37,0,2.37l-1.34-1.34c12.75,0,45.19,0,57.51,0,6.39.06,12.78-.24,19.17.5l-.84.84c.08-1.17.27-2.4.24-3.46-.1-3.53-3.32-6.5-6.86-6.45h0Zm0,0c3.67-.05,7.1,2.69,7.87,6.3.27,1.29.28,2.42.41,3.61.05.49-.36.85-.84.84-6.39.74-12.78.45-19.17.5-12.18,0-44.92,0-57.51,0-.74,0-1.34-.6-1.34-1.34v-2.37c-.14-4.77,4.1-9.02,8.87-8.88,0,0,4.75,0,4.75,0h18.98c3.16,0,11.19,0,14.24-.01,7.92-.1,15.8,1.48,23.73,1.35h0Z"/>
    </g>
  </g>
</svg>