<?xml version="1.0" encoding="UTF-8"?>
<svg id="Capa_2" data-name="Capa 2" xmlns="http://www.w3.org/2000/svg" viewBox="0 0 171.56 171.69">
  <defs>
    <style>
      .cls-1, .cls-2, .cls-3 {
        stroke-width: 0px;
      }

      .cls-2 {
        fill: #fff;
      }

      .cls-3 {
        fill: #83d34f;
      }
    </style>
  </defs>
  <g id="Capa_2-2" data-name="Capa 2">
    <g>
      <g>
        <path class="cls-3" d="m167.29,27.94v116.46c0,13.11-10.64,23.74-23.75,23.74H27.08c-13.11,0-23.75-10.63-23.75-23.74V27.94C3.33,14.82,13.97,4.19,27.08,4.19h116.46c13.11,0,23.75,10.63,23.75,23.75Zm-28.35,83.78c2.12-3.47,4-6.51,3.69-10.78-.34-4.73-3.02-8.81-5.54-12.67-2.9-4.45-6.01-8.81-8.67-13.41-.18-.31-.58-.43-.89-.25l-15.89,9.38c-.33.19-.42.62-.19.93,6.35,8.51,12.77,19.05,17.85,31.75.95,2.38,1.41,3.54,2.05,5.42.17.52.88.61,1.17.14,2.14-3.51,4.28-7.01,6.42-10.51Zm-9.75,15.96l-7.02-15.4c-.16-.34-.5-.56-.88-.55l-20.38.41c-.51.01-.94-.39-.96-.9l-.26-6.18-15.22,16.05c-.32.33-.35.84-.08,1.21l14.24,19.09.34-6.41c.02-.52.5-.91,1.02-.87,6.91.57,12.4.11,16.08-.41,4.81-.68,8.15-1.71,11.12-4.12.89-.73,1.56-1.42,2-1.92Zm-15.54-55.74l8.87-22.1-5.64,3.05c-.47.25-1.05.05-1.28-.42-3.12-6.19-6.37-10.63-8.74-13.51-3.08-3.74-5.7-6.06-9.31-7.33-1.08-.39-2.03-.59-2.68-.71l-9.48,14.02c-.21.31-.21.72-.01,1.03l10.97,17.19c.28.43.16,1-.27,1.28l-5.13,3.44,21.63,4.63c.44.1.9-.14,1.07-.57Zm-24.68-39.95c.35-.42.06-1.07-.49-1.07h-12.31c-4.07,0-7.64-.02-11.12,2.47-3.86,2.76-5.94,7.17-7.93,11.33-2.29,4.8-4.39,9.72-6.93,14.39-.17.32-.06.73.26.9l16.28,8.66c.34.18.75.04.9-.32,3.95-9.85,9.6-20.82,17.79-31.78,1.53-2.06,2.28-3.05,3.55-4.58Zm-13.82,81.68c0-.38-.31-.68-.69-.64-10.57,1-22.91,1-36.41-1.26-2.52-.42-3.75-.63-5.69-1.06-.53-.12-.98.44-.73.92,1.88,3.65,3.77,7.3,5.65,10.95,1.86,3.61,3.48,6.8,7.28,8.76,4.22,2.16,9.1,1.99,13.71,1.85,5.31-.16,10.65-.55,15.96-.43.36,0,.67-.28.68-.64l.24-18.45Zm-11.79-21.16l-5.8-21.35c-.12-.44-.54-.73-.99-.68l-23.72,2.23,5.31,3.62c.43.3.52.91.21,1.33-4.08,5.61-6.54,10.53-8.01,13.95-1.91,4.46-2.77,7.85-2.25,11.64.15,1.14.4,2.07.6,2.71l16.8,2c.37.05.74-.14.92-.46l10.25-17.63c.26-.44.82-.59,1.27-.35l5.41,2.99Z"/>
        <path class="cls-2" d="m142.63,100.94c.31,4.27-1.57,7.31-3.69,10.78-2.14,3.5-4.28,7-6.42,10.51-.29.47-1,.38-1.17-.14-.64-1.88-1.1-3.04-2.05-5.42-5.08-12.7-11.5-23.24-17.85-31.75-.23-.31-.14-.74.19-.93l15.89-9.38c.31-.18.71-.06.89.25,2.66,4.6,5.77,8.96,8.67,13.41,2.52,3.86,5.2,7.94,5.54,12.67Z"/>
        <path class="cls-2" d="m122.17,112.28l7.02,15.4c-.44.5-1.11,1.19-2,1.92-2.97,2.41-6.31,3.44-11.12,4.12-3.68.52-9.17.98-16.08.41-.52-.04-1,.35-1.02.87l-.34,6.41-14.24-19.09c-.27-.37-.24-.88.08-1.21l15.22-16.05.26,6.18c.02.51.45.91.96.9l20.38-.41c.38-.01.72.21.88.55Z"/>
        <path class="cls-2" d="m122.52,49.84l-8.87,22.1c-.17.43-.63.67-1.07.57l-21.63-4.63,5.13-3.44c.43-.28.55-.85.27-1.28l-10.97-17.19c-.2-.31-.2-.72.01-1.03l9.48-14.02c.65.12,1.6.32,2.68.71,3.61,1.27,6.23,3.59,9.31,7.33,2.37,2.88,5.62,7.32,8.74,13.51.23.47.81.67,1.28.42l5.64-3.05Z"/>
        <path class="cls-2" d="m88.48,30.92c.55,0,.84.65.49,1.07-1.27,1.53-2.02,2.52-3.55,4.58-8.19,10.96-13.84,21.93-17.79,31.78-.15.36-.56.5-.9.32l-16.28-8.66c-.32-.17-.43-.58-.26-.9,2.54-4.67,4.64-9.59,6.93-14.39,1.99-4.16,4.07-8.57,7.93-11.33,3.48-2.49,7.05-2.47,11.12-2.47h12.31Z"/>
        <path class="cls-2" d="m74.46,113.03c.38-.04.7.26.69.64l-.24,18.45c0,.36-.32.64-.68.64-5.31-.12-10.65.27-15.96.43-4.61.14-9.49.31-13.71-1.85-3.8-1.96-5.42-5.15-7.28-8.76-1.88-3.65-3.77-7.3-5.65-10.95-.25-.48.2-1.04.73-.92,1.94.43,3.17.64,5.69,1.06,13.5,2.26,25.84,2.26,36.41,1.26Z"/>
        <path class="cls-2" d="m57.56,71.16l5.8,21.35-5.41-2.99c-.45-.24-1.01-.09-1.27.35l-10.25,17.63c-.18.32-.55.51-.92.46l-16.8-2c-.2-.64-.45-1.57-.6-2.71-.52-3.79.34-7.18,2.25-11.64,1.47-3.42,3.93-8.34,8.01-13.95.31-.42.22-1.03-.21-1.33l-5.31-3.62,23.72-2.23c.45-.05.87.24.99.68Z"/>
      </g>
      <path class="cls-1" d="m143.54,168.54c-38.82-.23-77.7,2.88-116.52,3.15-6.93.01-13.8-2.69-18.78-7.53C2.88,159.1-.14,151.69,0,144.39c.5-25.62,1.81-51.25,2.03-76.87.18-13.64,0-27.28-.03-40.91,0-1.12.24-2.68.41-3.79C4.61,11.18,15.18,2.14,27.08,2,64.51.71,105.95.37,143.6,0c1.24.05,2.99.09,4.22.32,13.29,1.75,24.01,14.19,23.73,27.61-.22,18.48-.2,39.27-.9,57.66-.57,19.22-1.67,38.44-2.28,57.66.17,13.65-11.08,25.48-24.84,25.29h0Zm0-.8c12.61.08,23.13-10.69,22.69-23.29-.73-22.76-2.04-45.68-2.61-68.46-.25-9.3-.35-19.57-.43-28.83,0,0-.17-19.22-.17-19.22-.02-5.28-2.2-10.46-6.06-14.09-3.09-2.98-7.17-4.8-11.4-5.34-.93-.06-2.23-.15-3.17-.14-22.71-.09-54.51-.61-76.87-.97-12.81-.25-25.62-.68-38.44-1.02-9.64-.48-19.1,6.51-21.54,15.93,0,0-.3,1.09-.3,1.09,0,0-.19,1.11-.19,1.11l-.19,1.11s-.07,1.13-.07,1.13c-1,39.22.93,78.43,1.88,117.64.05,9.74,7.76,18.5,17.32,19.9.9.21,2.14.22,3.05.29,5.37.05,15.04.22,20.41.38,32.03.87,64.04,2.98,96.09,2.78h0Z"/>
    </g>
  </g>
</svg>