<?xml version="1.0" encoding="UTF-8"?>
<svg id="Capa_2" data-name="Capa 2" xmlns="http://www.w3.org/2000/svg" viewBox="0 0 186.43 140.44">
  <defs>
    <style>
      .cls-1 {
        fill: #848484;
      }

      .cls-1, .cls-2, .cls-3, .cls-4 {
        stroke-width: 0px;
      }

      .cls-3 {
        fill: #515151;
      }

      .cls-4 {
        fill: #c9c9c9;
      }
    </style>
  </defs>
  <g id="Capa_2-2" data-name="Capa 2">
    <g>
      <g>
        <path class="cls-4" d="m160.1,3.29c13.22,4.72,25.92,17.15,23.94,26.37l-72.25,18.68,12.35,16.64,11.27-4.83,11.49,9.39c-.14.49-.26.97-.35,1.44-4.45,7.55-10.19,15.79-17.58,24.05-9.4,10.5-18.91,18.18-26.83,23.65-21.92,11.58-30.89,20.27-44.78,19.34-11.75-.78-28.53-8.56-47.44-43.13-.35-.68-.69-1.35-1.01-2l1.12-.54c18.09,19.01,28.7,21.48,35.22,19.32,6.57-2.16,13.87-10.62,18.25-8.05,1.31.78,1.33,1.93,2.14,2.69,2.82,2.61,13.16-1.49,40.79-23.08-5.9,2.52-26.75,10.55-52.06,3.22-22.26-6.44-35.45-21.14-41.34-29.23,1.17-3.52.32-6.85,2.82-12.46.91-2.04,2.89-6.48,7.35-9.82,4.41-3.3,7.08-2.4,12.39-6.44,4.27-3.25,3.74-4.74,5.9-5.37,8.13-2.33,19.64,17.58,22.01,16.1,1.41-.87-1.67-8.62-1.82-9.01-2.43-6.01-4.83-7.35-4.62-10.31.08-1.2.71-4.41,7.31-8.02,14.75-8.08,36.16-4.81,61.93-7.51,18.77-1.97,23.86-4.63,33.81-1.07Z"/>
        <path class="cls-1" d="m111.79,48.34l72.25-18.68c-1.55,7.24-10.81,6.29-22.64,17.79-2.4,2.33-4.69,4.97-6.71,7.69-3.7,4.93-6.55,10.16-7.78,14.39l-11.49-9.39-11.27,4.83-12.35-16.64Z"/>
        <path class="cls-3" d="m183.17,71.98c1.3,2-1.47,7.61-18,22.92-26.22,6.42-47.08,15.34-63.04,23.78,7.93-5.47,17.44-13.15,26.83-23.65,7.39-8.27,13.13-16.51,17.58-24.05-.52,2.49-.36,4.55.67,5.84,5.42,6.79,32.79-9.68,35.96-4.83Z"/>
        <path class="cls-1" d="m54.37,86.44c25.31,7.33,46.16-.7,52.06-3.22-27.63,21.59-37.97,25.7-40.79,23.08-.82-.76-.83-1.91-2.14-2.69-4.38-2.57-11.68,5.89-18.25,8.05-6.53,2.16-17.13-.31-35.22-19.32l-1.12.54c-8.08-16.26-7.31-23.44-4.45-26.84,1.97-2.34,4.22-2.05,6.84-5.58.85-1.15,1.39-2.21,1.73-3.26,5.9,8.08,19.08,22.78,41.34,29.23Z"/>
      </g>
      <path class="cls-2" d="m165.05,94.67c3.04-3.22,19-18.58,17.03-22.17-1.72-.64-3.95.24-5.83.69-7.37,2.2-14.77,5.87-22.71,6.93-13.86,1.44-8.9-12.91-4.54-20.08,4.89-8.41,11.46-15.82,19.7-21.16,3.78-2.62,8.33-4.15,11.66-6.98,4.75-5.24-1.5-13.22-5.62-17.24-6.4-5.99-14.71-11.08-23.66-11.56-9.23,0-18.56,2.15-27.86,2.55-6.28.47-12.56.65-18.82.79-12.33.45-25.16-.03-36.74,4.76-3.68,1.81-8.56,4.09-9.56,8.38-.2,1.41.41,2.49,1.17,3.7,1.72,2.61,3.28,5.59,4.33,8.57.65,2.09,3.55,8.68-.61,8.74-.5-.06-.78-.22-1.05-.35-1.87-1.15-3.2-2.84-4.62-4.3-2.94-3.17-6.4-7.1-9.89-9.47-1.82-1.16-3.82-2.33-5.78-1.47-.12.07-.2.15-.39.37-.8,1.11-2.18,2.7-3.33,3.66-1.28,1.11-2.63,2.09-4.11,2.96-2.72,1.63-5.88,2.23-8.39,3.9-4.71,3.11-7.67,8.61-8.9,14.07-.61,3.12-.42,6.63-2.03,9.75-1.24,2.45-3.25,4.7-5.66,6.03-3.13,1.36-4.16,4.19-3.9,7.51,1.63,14.83,15.97,36.19,25.96,47.18,7.88,8.62,18.56,16.02,30.57,15.14,5.73-.36,11.25-2.9,16.67-5.81,5.43-2.94,10.84-6.16,16.38-9.15,22.06-12.02,45.98-20.82,70.54-25.95h0Zm.23.44c-18.11,5.11-35.64,11.63-52.45,20.01-11.27,5.54-21.71,12.12-32.56,18.52-20.25,12.5-37.65,6.86-53.23-9.57C16.43,112.73,1.05,89.04.02,73.49c-.21-3.72.87-8.09,4.17-10.46,1.38-1.03,2.66-1.45,3.81-2.45,3.57-2.84,3.26-7.27,4.07-11.51.73-3.36,2.1-6.4,3.9-9.34,1.81-2.88,4.23-5.46,7.2-7.31,2.75-1.8,5.98-2.33,8.69-3.83,1.82-1.02,3.64-2.34,5.09-3.88.49-.51.85-1.03,1.5-1.78.64-.8,1.99-1.54,3.03-1.68,7.2-1.07,13.71,8.15,17.95,12.8,1.18,1.36,2.6,3.06,3.81,3.92-.1-.05-.57.1-.67.3-.11.19-.06.14-.06.08.07-.4-.02-.88-.08-1.33-.54-2.86-1.6-5.9-2.83-8.58-.94-2.19-2.46-4.03-3.31-6.36-2.27-8.9,13.29-13.84,19.83-15.09,15.49-2.72,31.32-1.53,46.88-3.34,9.45-.77,18.55-3.31,28.11-3.64,12.38.22,26.34,8.87,32.77,19.37,2.57,4.23,3.83,10.28.53,14.57-3.53,4.27-9.13,5.69-13.4,8.64-7.61,4.8-13.88,11.81-18.58,19.5-1.54,2.58-2.91,5.3-3.74,8.05-.49,1.84-.97,3.77-.19,5.35.96,1.38,2.81,1.26,4.67,1.19,7.67-.85,14.66-4.1,22.35-6.02,2.52-.48,5.3-1.57,7.9-.04,6.03,4.48-14.69,21.26-18.17,24.49h0Z"/>
    </g>
  </g>
</svg>